<!-- project42:source-sha256=695373c14bff83c3868c7a5de4bf01ac7526fbf638add2cbc194e95913f7a65f; renderer=@mermaid-js/mermaid-cli@11.15.0 -->
<svg id="project42-grounded-answer-workflow" width="100%" xmlns="http://www.w3.org/2000/svg" xmlns:xlink="http://www.w3.org/1999/xlink" class="flowchart" style="max-width: 1951.28px; background-color: transparent;" viewBox="0 0 1951.281494140625 277.00665283203125" role="graphics-document document" aria-roledescription="flowchart-v2" aria-describedby="chart-desc-project42-grounded-answer-workflow" aria-labelledby="chart-title-project42-grounded-answer-workflow"><title id="chart-title-project42-grounded-answer-workflow">A grounded answer workflow</title><desc id="chart-desc-project42-grounded-answer-workflow">Bound the question, define evidence requirements, maintain a source ledger, map claims to evidence, challenge gaps, and publish citations with uncertainty.</desc><style>#project42-grounded-answer-workflow{font-family:Inter,Arial,sans-serif;font-size:17px;fill:#111827;}@keyframes edge-animation-frame{from{stroke-dashoffset:0;}}@keyframes dash{to{stroke-dashoffset:0;}}#project42-grounded-answer-workflow .edge-animation-slow{stroke-dasharray:9,5!important;stroke-dashoffset:900;animation:dash 50s linear infinite;stroke-linecap:round;}#project42-grounded-answer-workflow .edge-animation-fast{stroke-dasharray:9,5!important;stroke-dashoffset:900;animation:dash 20s linear infinite;stroke-linecap:round;}#project42-grounded-answer-workflow .error-icon{fill:#dff7fa;}#project42-grounded-answer-workflow .error-text{fill:#111827;stroke:#111827;}#project42-grounded-answer-workflow .edge-thickness-normal{stroke-width:1px;}#project42-grounded-answer-workflow .edge-thickness-thick{stroke-width:3.5px;}#project42-grounded-answer-workflow .edge-pattern-solid{stroke-dasharray:0;}#project42-grounded-answer-workflow .edge-thickness-invisible{stroke-width:0;fill:none;}#project42-grounded-answer-workflow .edge-pattern-dashed{stroke-dasharray:3;}#project42-grounded-answer-workflow .edge-pattern-dotted{stroke-dasharray:2;}#project42-grounded-answer-workflow .marker{fill:#455066;stroke:#455066;}#project42-grounded-answer-workflow .marker.cross{stroke:#455066;}#project42-grounded-answer-workflow svg{font-family:Inter,Arial,sans-serif;font-size:17px;}#project42-grounded-answer-workflow p{margin:0;}#project42-grounded-answer-workflow .label{font-family:Inter,Arial,sans-serif;color:#111827;}#project42-grounded-answer-workflow .cluster-label text{fill:#111827;}#project42-grounded-answer-workflow .cluster-label span{color:#111827;}#project42-grounded-answer-workflow .cluster-label span p{background-color:transparent;}#project42-grounded-answer-workflow .label text,#project42-grounded-answer-workflow span{fill:#111827;color:#111827;}#project42-grounded-answer-workflow .node rect,#project42-grounded-answer-workflow .node circle,#project42-grounded-answer-workflow .node ellipse,#project42-grounded-answer-workflow .node polygon,#project42-grounded-answer-workflow .node path{fill:#f6f3eb;stroke:#455066;stroke-width:1px;}#project42-grounded-answer-workflow .rough-node .label text,#project42-grounded-answer-workflow .node .label text,#project42-grounded-answer-workflow .image-shape .label,#project42-grounded-answer-workflow .icon-shape .label{text-anchor:middle;}#project42-grounded-answer-workflow .node .katex path{fill:#000;stroke:#000;stroke-width:1px;}#project42-grounded-answer-workflow .rough-node .label,#project42-grounded-answer-workflow .node .label,#project42-grounded-answer-workflow .image-shape .label,#project42-grounded-answer-workflow .icon-shape .label{text-align:center;}#project42-grounded-answer-workflow .node.clickable{cursor:pointer;}#project42-grounded-answer-workflow .root .anchor path{fill:#455066!important;stroke-width:0;stroke:#455066;}#project42-grounded-answer-workflow .arrowheadPath{fill:rgba(255, 255, 255, 0);}#project42-grounded-answer-workflow .edgePath .path{stroke:#455066;stroke-width:1px;}#project42-grounded-answer-workflow .flowchart-link{stroke:#455066;fill:none;}#project42-grounded-answer-workflow .edgeLabel{background-color:#c9f25f;text-align:center;}#project42-grounded-answer-workflow .edgeLabel p{background-color:#c9f25f;}#project42-grounded-answer-workflow .edgeLabel rect{opacity:0.5;background-color:#c9f25f;fill:#c9f25f;}#project42-grounded-answer-workflow .labelBkg{background-color:rgba(201, 242, 95, 0.5);}#project42-grounded-answer-workflow .cluster rect{fill:#dff7fa;stroke:#247b86;stroke-width:1px;}#project42-grounded-answer-workflow .cluster text{fill:#111827;}#project42-grounded-answer-workflow .cluster span{color:#111827;}#project42-grounded-answer-workflow div.mermaidTooltip{position:absolute;text-align:center;max-width:200px;padding:2px;font-family:Inter,Arial,sans-serif;font-size:12px;background:#dff7fa;border:1px solid #247b86;border-radius:2px;pointer-events:none;z-index:100;}#project42-grounded-answer-workflow .flowchartTitleText{text-anchor:middle;font-size:18px;fill:#111827;}#project42-grounded-answer-workflow rect.text{fill:none;stroke-width:0;}#project42-grounded-answer-workflow .icon-shape,#project42-grounded-answer-workflow .image-shape{background-color:#c9f25f;text-align:center;}#project42-grounded-answer-workflow .icon-shape p,#project42-grounded-answer-workflow .image-shape p{background-color:#c9f25f;padding:2px;}#project42-grounded-answer-workflow .icon-shape .label rect,#project42-grounded-answer-workflow .image-shape .label rect{opacity:0.5;background-color:#c9f25f;fill:#c9f25f;}#project42-grounded-answer-workflow .label-icon{display:inline-block;height:1em;overflow:visible;vertical-align:-0.125em;}#project42-grounded-answer-workflow .node .label-icon path{fill:currentColor;stroke:revert;stroke-width:revert;}#project42-grounded-answer-workflow .node .neo-node{stroke:#455066;}#project42-grounded-answer-workflow [data-look="neo"].node rect,#project42-grounded-answer-workflow [data-look="neo"].cluster rect,#project42-grounded-answer-workflow [data-look="neo"].node polygon{stroke:url(#project42-grounded-answer-workflow-gradient);filter:drop-shadow( 1px 2px 2px rgba(185,185,185,1));}#project42-grounded-answer-workflow [data-look="neo"].swimlane.cluster rect{filter:none;}#project42-grounded-answer-workflow [data-look="neo"].node path{stroke:url(#project42-grounded-answer-workflow-gradient);stroke-width:1px;}#project42-grounded-answer-workflow [data-look="neo"].node .outer-path{filter:drop-shadow( 1px 2px 2px rgba(185,185,185,1));}#project42-grounded-answer-workflow [data-look="neo"].node .neo-line path{stroke:#455066;filter:none;}#project42-grounded-answer-workflow [data-look="neo"].node circle{stroke:url(#project42-grounded-answer-workflow-gradient);filter:drop-shadow( 1px 2px 2px rgba(185,185,185,1));}#project42-grounded-answer-workflow [data-look="neo"].node circle .state-start{fill:#000000;}#project42-grounded-answer-workflow [data-look="neo"].icon-shape .icon{fill:url(#project42-grounded-answer-workflow-gradient);filter:drop-shadow( 1px 2px 2px rgba(185,185,185,1));}#project42-grounded-answer-workflow [data-look="neo"].icon-shape .icon-neo path{stroke:url(#project42-grounded-answer-workflow-gradient);filter:drop-shadow( 1px 2px 2px rgba(185,185,185,1));}#project42-grounded-answer-workflow :root{--mermaid-font-family:Inter,Arial,sans-serif;}</style><g><marker id="project42-grounded-answer-workflow_flowchart-v2-pointEnd" class="marker flowchart-v2" viewBox="0 0 10 10" refX="5" refY="5" markerUnits="userSpaceOnUse" markerWidth="8" markerHeight="8" orient="auto"><path d="M 0 0 L 10 5 L 0 10 z" class="arrowMarkerPath" style="stroke-width: 1; stroke-dasharray: 1, 0;"/></marker><marker id="project42-grounded-answer-workflow_flowchart-v2-pointStart" class="marker flowchart-v2" viewBox="0 0 10 10" refX="4.5" refY="5" markerUnits="userSpaceOnUse" markerWidth="8" markerHeight="8" orient="auto"><path d="M 0 5 L 10 10 L 10 0 z" class="arrowMarkerPath" style="stroke-width: 1; stroke-dasharray: 1, 0;"/></marker><marker id="project42-grounded-answer-workflow_flowchart-v2-pointEnd-margin" class="marker flowchart-v2" viewBox="0 0 11.5 14" refX="11.5" refY="7" markerUnits="userSpaceOnUse" markerWidth="10.5" markerHeight="14" orient="auto"><path d="M 0 0 L 11.5 7 L 0 14 z" class="arrowMarkerPath" style="stroke-width: 0; stroke-dasharray: 1, 0;"/></marker><marker id="project42-grounded-answer-workflow_flowchart-v2-pointStart-margin" class="marker flowchart-v2" viewBox="0 0 11.5 14" refX="1" refY="7" markerUnits="userSpaceOnUse" markerWidth="11.5" markerHeight="14" orient="auto"><polygon points="0,7 11.5,14 11.5,0" class="arrowMarkerPath" style="stroke-width: 0; stroke-dasharray: 1, 0;"/></marker><marker id="project42-grounded-answer-workflow_flowchart-v2-circleEnd" class="marker flowchart-v2" viewBox="0 0 10 10" refX="11" refY="5" markerUnits="userSpaceOnUse" markerWidth="11" markerHeight="11" orient="auto"><circle cx="5" cy="5" r="5" class="arrowMarkerPath" style="stroke-width: 1; stroke-dasharray: 1, 0;"/></marker><marker id="project42-grounded-answer-workflow_flowchart-v2-circleStart" class="marker flowchart-v2" viewBox="0 0 10 10" refX="-1" refY="5" markerUnits="userSpaceOnUse" markerWidth="11" markerHeight="11" orient="auto"><circle cx="5" cy="5" r="5" class="arrowMarkerPath" style="stroke-width: 1; stroke-dasharray: 1, 0;"/></marker><marker id="project42-grounded-answer-workflow_flowchart-v2-circleEnd-margin" class="marker flowchart-v2" viewBox="0 0 10 10" refY="5" refX="12.25" markerUnits="userSpaceOnUse" markerWidth="14" markerHeight="14" orient="auto"><circle cx="5" cy="5" r="5" class="arrowMarkerPath" style="stroke-width: 0; stroke-dasharray: 1, 0;"/></marker><marker id="project42-grounded-answer-workflow_flowchart-v2-circleStart-margin" class="marker flowchart-v2" viewBox="0 0 10 10" refX="-2" refY="5" markerUnits="userSpaceOnUse" markerWidth="14" markerHeight="14" orient="auto"><circle cx="5" cy="5" r="5" class="arrowMarkerPath" style="stroke-width: 0; stroke-dasharray: 1, 0;"/></marker><marker id="project42-grounded-answer-workflow_flowchart-v2-crossEnd" class="marker cross flowchart-v2" viewBox="0 0 11 11" refX="12" refY="5.2" markerUnits="userSpaceOnUse" markerWidth="11" markerHeight="11" orient="auto"><path d="M 1,1 l 9,9 M 10,1 l -9,9" class="arrowMarkerPath" style="stroke-width: 2; stroke-dasharray: 1, 0;"/></marker><marker id="project42-grounded-answer-workflow_flowchart-v2-crossStart" class="marker cross flowchart-v2" viewBox="0 0 11 11" refX="-1" refY="5.2" markerUnits="userSpaceOnUse" markerWidth="11" markerHeight="11" orient="auto"><path d="M 1,1 l 9,9 M 10,1 l -9,9" class="arrowMarkerPath" style="stroke-width: 2; stroke-dasharray: 1, 0;"/></marker><marker id="project42-grounded-answer-workflow_flowchart-v2-crossEnd-margin" class="marker cross flowchart-v2" viewBox="0 0 15 15" refX="17.7" refY="7.5" markerUnits="userSpaceOnUse" markerWidth="12" markerHeight="12" orient="auto"><path d="M 1,1 L 14,14 M 1,14 L 14,1" class="arrowMarkerPath" style="stroke-width: 2.5;"/></marker><marker id="project42-grounded-answer-workflow_flowchart-v2-crossStart-margin" class="marker cross flowchart-v2" viewBox="0 0 15 15" refX="-3.5" refY="7.5" markerUnits="userSpaceOnUse" markerWidth="12" markerHeight="12" orient="auto"><path d="M 1,1 L 14,14 M 1,14 L 14,1" class="arrowMarkerPath" style="stroke-width: 2.5; stroke-dasharray: 1, 0;"/></marker><g class="root"><g class="clusters"/><g class="edgePaths"><path d="M258.922,138.503L263.089,138.503C267.255,138.503,275.589,138.503,283.255,138.503C290.922,138.503,297.922,138.503,301.422,138.503L304.922,138.503" id="project42-grounded-answer-workflow-L_Q_S_0" class="edge-thickness-normal edge-pattern-solid edge-thickness-normal edge-pattern-solid flowchart-link" style=";" data-edge="true" data-et="edge" data-id="L_Q_S_0" data-points="W3sieCI6MjU4LjkyMTg3NSwieSI6MTM4LjUwMzMyNjQxNjAxNTYyfSx7IngiOjI4My45MjE4NzUsInkiOjEzOC41MDMzMjY0MTYwMTU2Mn0seyJ4IjozMDguOTIxODc1LCJ5IjoxMzguNTAzMzI2NDE2MDE1NjJ9XQ==" data-look="classic" marker-end="url(#project42-grounded-answer-workflow_flowchart-v2-pointEnd)"/><path d="M501.281,138.503L505.448,138.503C509.615,138.503,517.948,138.503,525.615,138.503C533.281,138.503,540.281,138.503,543.781,138.503L547.281,138.503" id="project42-grounded-answer-workflow-L_S_E_0" class="edge-thickness-normal edge-pattern-solid edge-thickness-normal edge-pattern-solid flowchart-link" style=";" data-edge="true" data-et="edge" data-id="L_S_E_0" data-points="W3sieCI6NTAxLjI4MTI1LCJ5IjoxMzguNTAzMzI2NDE2MDE1NjJ9LHsieCI6NTI2LjI4MTI1LCJ5IjoxMzguNTAzMzI2NDE2MDE1NjJ9LHsieCI6NTUxLjI4MTI1LCJ5IjoxMzguNTAzMzI2NDE2MDE1NjJ9XQ==" data-look="classic" marker-end="url(#project42-grounded-answer-workflow_flowchart-v2-pointEnd)"/><path d="M733.74,138.503L737.907,138.503C742.074,138.503,750.407,138.503,758.074,138.503C765.74,138.503,772.74,138.503,776.24,138.503L779.74,138.503" id="project42-grounded-answer-workflow-L_E_L_0" class="edge-thickness-normal edge-pattern-solid edge-thickness-normal edge-pattern-solid flowchart-link" style=";" data-edge="true" data-et="edge" data-id="L_E_L_0" data-points="W3sieCI6NzMzLjc0MDIzNDM3NSwieSI6MTM4LjUwMzMyNjQxNjAxNTYyfSx7IngiOjc1OC43NDAyMzQzNzUsInkiOjEzOC41MDMzMjY0MTYwMTU2Mn0seyJ4Ijo3ODMuNzQwMjM0Mzc1LCJ5IjoxMzguNTAzMzI2NDE2MDE1NjJ9XQ==" data-look="classic" marker-end="url(#project42-grounded-answer-workflow_flowchart-v2-pointEnd)"/><path d="M975.823,114.003L982.456,112.17C989.089,110.337,1002.355,106.67,1012.488,104.837C1022.621,103.003,1029.621,103.003,1033.121,103.003L1036.621,103.003" id="project42-grounded-answer-workflow-L_L_M_0" class="edge-thickness-normal edge-pattern-solid edge-thickness-normal edge-pattern-solid flowchart-link" style=";" data-edge="true" data-et="edge" data-id="L_L_M_0" data-points="W3sieCI6OTc1LjgyMjY1MDc0ODIzOTQsInkiOjExNC4wMDMzMjY0MTYwMTU2Mn0seyJ4IjoxMDE1LjYyMTA5Mzc1LCJ5IjoxMDMuMDAzMzI2NDE2MDE1NjJ9LHsieCI6MTA0MC42MjEwOTM3NSwieSI6MTAzLjAwMzMyNjQxNjAxNTYyfV0=" data-look="classic" marker-end="url(#project42-grounded-answer-workflow_flowchart-v2-pointEnd)"/><path d="M1278.83,103.003L1282.997,103.003C1287.163,103.003,1295.497,103.003,1307.223,104.729C1318.949,106.455,1334.067,109.906,1341.627,111.632L1349.186,113.358" id="project42-grounded-answer-workflow-L_M_C_0" class="edge-thickness-normal edge-pattern-solid edge-thickness-normal edge-pattern-solid flowchart-link" style=";" data-edge="true" data-et="edge" data-id="L_M_C_0" data-points="W3sieCI6MTI3OC44MzAwNzgxMjUsInkiOjEwMy4wMDMzMjY0MTYwMTU2Mn0seyJ4IjoxMzAzLjgzMDA3ODEyNSwieSI6MTAzLjAwMzMyNjQxNjAxNTYyfSx7IngiOjEzNTMuMDg1NTA5NTYwMTQ2NiwieSI6MTE0LjI0Nzg5NDk4MDg2OTIzfV0=" data-look="classic" marker-end="url(#project42-grounded-answer-workflow_flowchart-v2-pointEnd)"/><path d="M1353.086,162.759L1344.876,164.633C1336.667,166.507,1320.249,170.255,1288.022,172.129C1255.795,174.003,1207.76,174.003,1159.726,174.003C1111.691,174.003,1063.656,174.003,1033.648,172.348C1003.64,170.692,991.659,167.38,985.669,165.725L979.678,164.069" id="project42-grounded-answer-workflow-L_C_L_0" class="edge-thickness-normal edge-pattern-solid edge-thickness-normal edge-pattern-solid flowchart-link" style=";" data-edge="true" data-et="edge" data-id="L_C_L_0" data-points="W3sieCI6MTM1My4wODU1MDk1NjAxNDY2LCJ5IjoxNjIuNzU4NzU3ODUxMTYyMDd9LHsieCI6MTMwMy44MzAwNzgxMjUsInkiOjE3NC4wMDMzMjY0MTYwMTU2Mn0seyJ4IjoxMTU5LjcyNTU4NTkzNzUsInkiOjE3NC4wMDMzMjY0MTYwMTU2Mn0seyJ4IjoxMDE1LjYyMTA5Mzc1LCJ5IjoxNzQuMDAzMzI2NDE2MDE1NjJ9LHsieCI6OTc1LjgyMjY1MDc0ODIzOTQsInkiOjE2My4wMDMzMjY0MTYwMTU2Mn1d" data-look="classic" marker-end="url(#project42-grounded-answer-workflow_flowchart-v2-pointEnd)"/><path d="M1589.837,138.503L1600.874,138.503C1611.912,138.503,1633.988,138.503,1655.48,138.582C1676.972,138.66,1697.881,138.817,1708.336,138.895L1718.79,138.973" id="project42-grounded-answer-workflow-L_C_A_0" class="edge-thickness-normal edge-pattern-solid edge-thickness-normal edge-pattern-solid flowchart-link" style=";" data-edge="true" data-et="edge" data-id="L_C_A_0" data-points="W3sieCI6MTU4OS44MzY3MzA5NTcwMzE1LCJ5IjoxMzguNTAzMzI2NDE2MDE1NjJ9LHsieCI6MTY1Ni4wNjMyOTM0NTcwMzEyLCJ5IjoxMzguNTAzMzI2NDE2MDE1NjJ9LHsieCI6MTcyMi43ODk4NTU5NTcwMjk3LCJ5IjoxMzkuMDAzMzI2NDE2MDE1Nn1d" data-look="classic" marker-end="url(#project42-grounded-answer-workflow_flowchart-v2-pointEnd)"/></g><g class="edgeLabels"><g class="edgeLabel"><g class="label" data-id="L_Q_S_0" transform="translate(0, 0)"><text y="-10.1" text-anchor="middle"><tspan class="text-outer-tspan row" x="0" y="-0.1em" dy="1.1em" text-anchor="middle"/></text></g></g><g><rect class="background" style="stroke: none"/></g><g class="edgeLabel"><g class="label" data-id="L_S_E_0" transform="translate(0, 0)"><text y="-10.1" text-anchor="middle"><tspan class="text-outer-tspan row" x="0" y="-0.1em" dy="1.1em" text-anchor="middle"/></text></g></g><g><rect class="background" style="stroke: none"/></g><g class="edgeLabel"><g class="label" data-id="L_E_L_0" transform="translate(0, 0)"><text y="-10.1" text-anchor="middle"><tspan class="text-outer-tspan row" x="0" y="-0.1em" dy="1.1em" text-anchor="middle"/></text></g></g><g><rect class="background" style="stroke: none"/></g><g class="edgeLabel"><g class="label" data-id="L_L_M_0" transform="translate(0, 0)"><text y="-10.1" text-anchor="middle"><tspan class="text-outer-tspan row" x="0" y="-0.1em" dy="1.1em" text-anchor="middle"/></text></g></g><g><rect class="background" style="stroke: none"/></g><g class="edgeLabel"><g class="label" data-id="L_M_C_0" transform="translate(0, 0)"><text y="-10.1" text-anchor="middle"><tspan class="text-outer-tspan row" x="0" y="-0.1em" dy="1.1em" text-anchor="middle"/></text></g></g><g><rect class="background" style="stroke: none"/></g><g class="edgeLabel" transform="translate(1159.7255859375, 174.00332641601562)"><g class="label" data-id="L_C_L_0" transform="translate(-0.2685546875, -11.5)"><g><rect class="background" style="" x="-99.3359375" y="0" width="199.208984375" height="23"/><text y="-10.1" text-anchor="middle" style=""><tspan class="text-outer-tspan row" x="0" y="-0.1em" dy="1.1em" text-anchor="middle"><tspan font-style="normal" class="text-inner-tspan" font-weight="normal">Missing</tspan><tspan font-style="normal" class="text-inner-tspan" font-weight="normal"> or</tspan><tspan font-style="normal" class="text-inner-tspan" font-weight="normal"> weak</tspan><tspan font-style="normal" class="text-inner-tspan" font-weight="normal"> evidence</tspan></tspan></text></g></g></g><g class="edgeLabel" transform="translate(1656.0632934570312, 138.50332641601562)"><g class="label" data-id="L_C_A_0" transform="translate(0, -11.5)"><g><rect class="background" style="" x="-41.2265625" y="0" width="82.453125" height="23"/><text y="-10.1" text-anchor="middle" style=""><tspan class="text-outer-tspan row" x="0" y="-0.1em" dy="1.1em" text-anchor="middle"><tspan font-style="normal" class="text-inner-tspan" font-weight="normal">Supported</tspan></tspan></text></g></g></g></g><g class="nodes"><g class="node default" id="project42-grounded-answer-workflow-flowchart-Q-0" data-look="classic" transform="translate(133.4609375, 138.50332641601562)"><rect class="basic label-container" style="" x="-125.4609375" y="-24.5" width="250.921875" height="49"/><g class="label" style="" transform="translate(0, -9.5)"><rect/><g><rect class="background" style="stroke: none"/><text y="-10.1" style=""><tspan class="text-outer-tspan row" x="0" y="-0.1em" dy="1.1em"><tspan font-style="normal" class="text-inner-tspan" font-weight="normal">Real</tspan><tspan font-style="normal" class="text-inner-tspan" font-weight="normal"> question</tspan><tspan font-style="normal" class="text-inner-tspan" font-weight="normal"> or</tspan><tspan font-style="normal" class="text-inner-tspan" font-weight="normal"> decision</tspan></tspan></text></g></g></g><g class="node default" id="project42-grounded-answer-workflow-flowchart-S-1" data-look="classic" transform="translate(405.1015625, 138.50332641601562)"><rect class="basic label-container" style="" x="-96.1796875" y="-33.85000038146973" width="192.359375" height="67.70000076293945"/><g class="label" style="" transform="translate(0, -18.850000381469727)"><rect/><g><rect class="background" style="stroke: none"/><text y="-10.1" style=""><tspan class="text-outer-tspan row" x="0" y="-0.1em" dy="1.1em"><tspan font-style="normal" class="text-inner-tspan" font-weight="normal">Bound</tspan><tspan font-style="normal" class="text-inner-tspan" font-weight="normal"> scope</tspan><tspan font-style="normal" class="text-inner-tspan" font-weight="normal"> and</tspan></tspan><tspan class="text-outer-tspan row" x="0" y="1em" dy="1.1em"><tspan font-style="normal" class="text-inner-tspan" font-weight="normal">assumptions</tspan></tspan></text></g></g></g><g class="node default" id="project42-grounded-answer-workflow-flowchart-E-3" data-look="classic" transform="translate(642.5107421875, 138.50332641601562)"><rect class="basic label-container" style="" x="-91.2294921875" y="-33.85000038146973" width="182.458984375" height="67.70000076293945"/><g class="label" style="" transform="translate(0, -18.850000381469727)"><rect/><g><rect class="background" style="stroke: none"/><text y="-10.1" style=""><tspan class="text-outer-tspan row" x="0" y="-0.1em" dy="1.1em"><tspan font-style="normal" class="text-inner-tspan" font-weight="normal">Define</tspan><tspan font-style="normal" class="text-inner-tspan" font-weight="normal"> evidence</tspan></tspan><tspan class="text-outer-tspan row" x="0" y="1em" dy="1.1em"><tspan font-style="normal" class="text-inner-tspan" font-weight="normal">requirements</tspan></tspan></text></g></g></g><g class="node default" id="project42-grounded-answer-workflow-flowchart-L-5" data-look="classic" transform="translate(887.1806640625, 138.50332641601562)"><rect class="basic label-container" style="" x="-103.4404296875" y="-24.5" width="206.880859375" height="49"/><g class="label" style="" transform="translate(0, -9.5)"><rect/><g><rect class="background" style="stroke: none"/><text y="-10.1" style=""><tspan class="text-outer-tspan row" x="0" y="-0.1em" dy="1.1em"><tspan font-style="normal" class="text-inner-tspan" font-weight="normal">Build</tspan><tspan font-style="normal" class="text-inner-tspan" font-weight="normal"> source</tspan><tspan font-style="normal" class="text-inner-tspan" font-weight="normal"> ledger</tspan></tspan></text></g></g></g><g class="node default" id="project42-grounded-answer-workflow-flowchart-M-7" data-look="classic" transform="translate(1159.7255859375, 103.00332641601562)"><rect class="basic label-container" style="" x="-119.1044921875" y="-24.5" width="238.208984375" height="49"/><g class="label" style="" transform="translate(0, -9.5)"><rect/><g><rect class="background" style="stroke: none"/><text y="-10.1" style=""><tspan class="text-outer-tspan row" x="0" y="-0.1em" dy="1.1em"><tspan font-style="normal" class="text-inner-tspan" font-weight="normal">Map</tspan><tspan font-style="normal" class="text-inner-tspan" font-weight="normal"> claims</tspan><tspan font-style="normal" class="text-inner-tspan" font-weight="normal"> to</tspan><tspan font-style="normal" class="text-inner-tspan" font-weight="normal"> evidence</tspan></tspan></text></g></g></g><g class="node default" id="project42-grounded-answer-workflow-flowchart-C-9" data-look="classic" transform="translate(1459.3334045410156, 138.50332641601562)"><polygon points="130.50332069396973,0 261.00664138793945,-130.50332069396973 130.50332069396973,-261.00664138793945 0,-130.50332069396973" class="label-container" transform="translate(-130.00332069396973, 130.50332069396973)"/><g class="label" style="" transform="translate(0, -18.850000381469727)"><rect/><g><rect class="background" style="stroke: none"/><text y="-10.1" style=""><tspan class="text-outer-tspan row" x="0" y="-0.1em" dy="1.1em"><tspan font-style="normal" class="text-inner-tspan" font-weight="normal">Challenge</tspan><tspan font-style="normal" class="text-inner-tspan" font-weight="normal"> supportedness</tspan></tspan><tspan class="text-outer-tspan row" x="0" y="1em" dy="1.1em"><tspan font-style="normal" class="text-inner-tspan" font-weight="normal">and</tspan><tspan font-style="normal" class="text-inner-tspan" font-weight="normal"> freshness</tspan></tspan></text></g></g></g><g class="node default" id="project42-grounded-answer-workflow-flowchart-A-13" data-look="classic" transform="translate(1832.7856903076172, 138.50332641601562)"><g class="basic label-container outer-path"><path d="M-84.1593747138977 -26.350000381469727 C-46.85407140389911 -26.350000381469727, -9.54876809390052 -26.350000381469727, 84.1593747138977 -26.350000381469727 C84.1593747138977 -26.350000381469727, 84.1593747138977 -26.350000381469727, 84.1593747138977 -26.350000381469727 C84.62104261835414 -26.33519559035587, 85.08271052281056 -26.320390799242016, 85.84762503483034 -26.29586147965732 C86.41873113971816 -26.240767560574373, 86.989837244606 -26.185673641491423, 87.5289379730657 -26.1336672425804 C88.16537288568294 -26.030773381534907, 88.80180779830019 -25.927879520489412, 89.19640465310009 -25.864084161149677 C89.68167540675788 -25.753324278314896, 90.16694616041566 -25.642564395480118, 90.84317309667476 -25.488220010072133 C91.20551769897642 -25.38067803409463, 91.56786230127808 -25.273136058117128, 92.46247637902435 -25.007619295767157 C92.85706480885207 -24.862407106055095, 93.2516532386798 -24.717194916343036, 94.04766043562222 -24.424256909658354 C94.39921834456013 -24.26863265196638, 94.75077625349805 -24.11300839427441, 95.59221140515888 -23.74053001292109 C95.901007419745 -23.5794313299048, 96.20980343433112 -23.418332646888505, 97.08978239639535 -22.959248186033022 C97.60320229034153 -22.648010029132646, 98.11662218428772 -22.33677187223227, 98.53421956890071 -22.083621883605243 C99.07994005854175 -21.702950893890904, 99.62566054818278 -21.322279904176565, 99.91958742050231 -21.117249241935692 C100.33340793087132 -20.787238397142676, 100.74722844124032 -20.45722755234966, 101.24019317753744 -20.064101293495277 C101.66598119358522 -19.677411883054233, 102.09176920963301 -19.29072247261319, 102.4906101876814 -18.928505649103652 C102.9003253443581 -18.505441111595022, 103.31004050103478 -18.082376574086393, 103.66570021922591 -17.71512871484814 C103.91519149972432 -17.422062060318684, 104.16468278022272 -17.12899540578923, 104.76063457517533 -16.428956516820115 C105.1384830734065 -15.922673951896668, 105.51633157163768 -15.416391386973219, 105.77091393539837 -15.075274212464363 C106.05400819810083 -14.640365403499846, 106.33710246080328 -14.20545659453533, 106.69238684529965 -13.659644372733409 C106.87400496882675 -13.337163003581791, 107.05562309235387 -13.014681634430174, 107.52126677503705 -12.187884124290365 C107.78646434721632 -11.63719569134108, 108.05166191939558 -11.086507258391794, 108.2541476791851 -10.666041245687675 C108.49906922741421 -10.061080286325765, 108.74399077564333 -9.456119326963856, 108.88801799290619 -9.100369315747782 C109.0339765111825 -8.660765514031265, 109.17993502945882 -8.221161712314748, 109.42027300711648 -7.497302016266373 C109.57504874601892 -6.907075043601794, 109.72982448492135 -6.3168480709372155, 109.84872557179423 -5.863426694633887 C109.95273771766433 -5.329346308565741, 110.05674986353444 -4.795265922497595, 110.17161508344843 -4.2054572950120805 C110.22770585180464 -3.7704283720162772, 110.28379662016087 -3.3353994490204744, 110.38761471981607 -2.5302067692972967 C110.42558851520164 -1.9387342542711772, 110.4635623105872 -1.3472617392450577, 110.49583689205957 -0.8445590812398202 C110.49583689205957 -0.3724032645744753, 110.49583689205957 0.09975255209086953, 110.49583689205957 0.8445590812398137 C110.46589253830561 1.3109665616050894, 110.43594818455163 1.777374041970365, 110.38761471981607 2.5302067692972785 C110.30680700841093 3.156935421668038, 110.2259992970058 3.783664074038798, 110.17161508344843 4.205457295012063 C110.06239798762313 4.76626399903359, 109.95318089179783 5.327070703055118, 109.84872557179423 5.8634266946338816 C109.75921625095663 6.204764528572727, 109.66970693011902 6.546102362511571, 109.42027300711648 7.497302016266356 C109.2096411377499 8.131691647167607, 108.99900926838332 8.766081278068858, 108.88801799290619 9.100369315747765 C108.72308315935737 9.507761543411393, 108.55814832580857 9.915153771075019, 108.2541476791851 10.666041245687667 C108.03518048804389 11.120731303239719, 107.81621329690269 11.575421360791768, 107.52126677503705 12.187884124290358 C107.26258045526927 12.647207879868398, 107.0038941355015 13.106531635446439, 106.69238684529965 13.659644372733403 C106.3427057313344 14.196848466310712, 105.99302461736916 14.734052559888022, 105.77091393539838 15.075274212464347 C105.37700960126543 15.603070134779434, 104.98310526713247 16.130866057094522, 104.76063457517533 16.428956516820108 C104.53046679424908 16.699324689213842, 104.30029901332283 16.969692861607577, 103.66570021922593 17.715128714848124 C103.29891431089689 18.093865278880966, 102.93212840256786 18.472601842913804, 102.49061018768141 18.928505649103645 C102.19868926724314 19.19362050524138, 101.90676834680487 19.45873536137912, 101.24019317753746 20.06410129349526 C100.9009693096429 20.33462330101493, 100.56174544174834 20.605145308534595, 99.91958742050231 21.11724924193569 C99.52880125481917 21.389844754255783, 99.13801508913603 21.662440266575878, 98.53421956890072 22.083621883605232 C98.19969594673665 22.286412069240104, 97.86517232457258 22.489202254874975, 97.08978239639535 22.95924818603302 C96.73465975336036 23.14451544143746, 96.37953711032539 23.329782696841903, 95.59221140515888 23.740530012921088 C95.25864190356533 23.888191336288852, 94.9250724019718 24.03585265965662, 94.04766043562222 24.424256909658354 C93.55809698072409 24.604420786535837, 93.06853352582596 24.784584663413316, 92.46247637902437 25.00761929576715 C91.87605941529644 25.181664772436143, 91.2896424515685 25.35571024910514, 90.84317309667479 25.488220010072126 C90.24799153267598 25.624066318132176, 89.65280996867718 25.75991262619223, 89.1964046531001 25.864084161149673 C88.60041080945003 25.96043982378973, 88.00441696579995 26.056795486429788, 87.52893797306572 26.133667242580398 C86.88251722498309 26.196026674713238, 86.23609647690047 26.25838610684608, 85.84762503483034 26.29586147965732 C85.4445628584139 26.30878689914206, 85.04150068199748 26.3217123186268, 84.1593747138977 26.350000381469727 C84.1593747138977 26.350000381469727, 84.1593747138977 26.350000381469727, 84.1593747138977 26.350000381469727 C20.135467623867143 26.350000381469727, -43.88843946616342 26.350000381469727, -84.1593747138977 26.350000381469727 C-84.65306541923668 26.33416868146017, -85.14675612457567 26.31833698145061, -85.84762503483033 26.29586147965732 C-86.47323737088989 26.235509410006568, -87.09884970694945 26.175157340355817, -87.52893797306571 26.133667242580398 C-87.9934908424502 26.05856193731962, -88.45804371183469 25.983456632058843, -89.19640465310009 25.864084161149673 C-89.77843051060144 25.73124055724866, -90.36045636810277 25.59839695334765, -90.84317309667476 25.488220010072133 C-91.16885261563667 25.391560038370923, -91.49453213459856 25.29490006666971, -92.46247637902434 25.00761929576716 C-92.94681928383862 24.829376629578775, -93.43116218865289 24.65113396339039, -94.04766043562222 24.424256909658354 C-94.49146923072246 24.227795921187628, -94.9352780258227 24.031334932716902, -95.59221140515886 23.740530012921095 C-95.96687482985293 23.54506834424158, -96.34153825454698 23.34960667556207, -97.08978239639535 22.959248186033026 C-97.53150875611713 22.69147107089745, -97.97323511583892 22.423693955761877, -98.5342195689007 22.08362188360525 C-98.96406308161163 21.78378165676387, -99.39390659432254 21.483941429922492, -99.9195874205023 21.117249241935696 C-100.37533974239349 20.7537988933061, -100.83109206428469 20.390348544676506, -101.24019317753744 20.06410129349528 C-101.59930946379822 19.7379613840095, -101.95842575005899 19.411821474523716, -102.4906101876814 18.928505649103663 C-102.83234043705986 18.575641110045147, -103.17407068643831 18.22277657098663, -103.66570021922591 17.715128714848134 C-103.97312826580126 17.354006238189314, -104.28055631237663 16.992883761530493, -104.76063457517533 16.42895651682012 C-105.0199643676097 16.081478220388174, -105.27929416004406 15.733999923956231, -105.77091393539837 15.075274212464365 C-106.05284548250881 14.642151646882034, -106.33477702961926 14.209029081299704, -106.69238684529964 13.659644372733421 C-106.94116635640003 13.217911159117484, -107.18994586750043 12.77617794550155, -107.52126677503705 12.187884124290367 C-107.73721498555982 11.739463044588339, -107.95316319608258 11.291041964886311, -108.2541476791851 10.666041245687678 C-108.43214706530638 10.22637932058409, -108.61014645142767 9.786717395480503, -108.88801799290619 9.100369315747784 C-109.07197318423657 8.546325588740135, -109.25592837556694 7.992281861732488, -109.42027300711648 7.4973020162663655 C-109.55198538056968 6.995025651785536, -109.68369775402289 6.492749287304706, -109.84872557179423 5.86342669463389 C-109.93918417080013 5.39894090717029, -110.02964276980603 4.93445511970669, -110.17161508344843 4.205457295012083 C-110.2195417824633 3.833747281649977, -110.26746848147816 3.4620372682878706, -110.38761471981607 2.530206769297312 C-110.41391976927432 2.1204843909313373, -110.44022481873257 1.7107620125653624, -110.49583689205957 0.8445590812398235 C-110.49583689205957 0.36846926030651905, -110.49583689205957 -0.10762056062678538, -110.49583689205957 -0.8445590812398106 C-110.45302810946389 -1.511340424794977, -110.41021932686819 -2.1781217683501435, -110.38761471981607 -2.5302067692972754 C-110.30413381122396 -3.1776682111676795, -110.22065290263185 -3.825129653038083, -110.17161508344843 -4.205457295012071 C-110.07235689303245 -4.715127124572161, -109.97309870261647 -5.224796954132251, -109.84872557179423 -5.863426694633878 C-109.72751636391828 -6.325649936667861, -109.60630715604235 -6.787873178701843, -109.42027300711648 -7.497302016266352 C-109.22227487465823 -8.09364084451231, -109.02427674219999 -8.689979672758266, -108.88801799290619 -9.10036931574775 C-108.72809055210159 -9.49539318652184, -108.56816311129698 -9.890417057295927, -108.2541476791851 -10.666041245687664 C-108.01437839483901 -11.163927294873144, -107.77460911049293 -11.661813344058624, -107.52126677503705 -12.187884124290356 C-107.31290175747232 -12.557857312222493, -107.10453673990759 -12.92783050015463, -106.69238684529965 -13.659644372733412 C-106.49485108409296 -13.963112347725883, -106.29731532288628 -14.266580322718353, -105.77091393539838 -15.075274212464356 C-105.52142221036038 -15.409570394851546, -105.27193048532237 -15.743866577238737, -104.76063457517535 -16.428956516820108 C-104.52956553872194 -16.70038335523892, -104.29849650226853 -16.97181019365773, -103.66570021922593 -17.715128714848124 C-103.32471181119836 -18.067227241805536, -102.98372340317079 -18.419325768762953, -102.49061018768143 -18.928505649103638 C-102.06871312346885 -19.31166140003688, -101.64681605925628 -19.694817150970124, -101.24019317753746 -20.064101293495256 C-100.72120578261756 -20.477979930109278, -100.20221838769766 -20.8918585667233, -99.91958742050231 -21.117249241935685 C-99.38950089409161 -21.487014655683904, -98.85941436768091 -21.856780069432123, -98.53421956890072 -22.083621883605232 C-98.17078284064911 -22.303939364062646, -97.8073461123975 -22.524256844520057, -97.08978239639536 -22.959248186033015 C-96.781529626053 -23.1200634588753, -96.47327685571065 -23.280878731717586, -95.59221140515888 -23.740530012921088 C-95.05012870300378 -23.98049394485313, -94.50804600084867 -24.22045787678517, -94.04766043562223 -24.42425690965835 C-93.47672194032218 -24.634367553626365, -92.90578344502214 -24.84447819759438, -92.46247637902438 -25.00761929576715 C-92.00276148673916 -25.14406026270469, -91.54304659445393 -25.280501229642237, -90.8431730966748 -25.488220010072123 C-90.38783782646045 -25.592147314158222, -89.9325025562461 -25.696074618244324, -89.1964046531001 -25.864084161149673 C-88.77694847506072 -25.931898583083836, -88.35749229702134 -25.999713005018002, -87.52893797306572 -26.133667242580398 C-87.13806711347318 -26.171374084314305, -86.74719625388065 -26.209080926048212, -85.84762503483034 -26.29586147965732 C-85.26072653600116 -26.314682172186142, -84.67382803717197 -26.33350286471497, -84.15937471389772 -26.350000381469727 C-84.15937471389772 -26.350000381469727, -84.15937471389772 -26.350000381469727, -84.1593747138977 -26.350000381469727" stroke="none" stroke-width="0" fill="#f6f3eb" style=""/><path d="M-84.1593747138977 -26.350000381469727 C-21.494210488463757 -26.350000381469727, 41.17095373697019 -26.350000381469727, 84.1593747138977 -26.350000381469727 M-84.1593747138977 -26.350000381469727 C-45.398136189883516 -26.350000381469727, -6.636897665869327 -26.350000381469727, 84.1593747138977 -26.350000381469727 M84.1593747138977 -26.350000381469727 C84.1593747138977 -26.350000381469727, 84.1593747138977 -26.350000381469727, 84.1593747138977 -26.350000381469727 M84.1593747138977 -26.350000381469727 C84.1593747138977 -26.350000381469727, 84.1593747138977 -26.350000381469727, 84.1593747138977 -26.350000381469727 M84.1593747138977 -26.350000381469727 C84.69612015590572 -26.332787999856155, 85.23286559791373 -26.31557561824258, 85.84762503483034 -26.29586147965732 M84.1593747138977 -26.350000381469727 C84.69670054228189 -26.332769387994723, 85.23402637066606 -26.31553839451972, 85.84762503483034 -26.29586147965732 M85.84762503483034 -26.29586147965732 C86.28814931843606 -26.25336463182584, 86.72867360204177 -26.21086778399436, 87.5289379730657 -26.1336672425804 M85.84762503483034 -26.29586147965732 C86.25306748363883 -26.25674893423665, 86.6585099324473 -26.21763638881598, 87.5289379730657 -26.1336672425804 M87.5289379730657 -26.1336672425804 C88.18892091250981 -26.026966319175212, 88.84890385195392 -25.920265395770027, 89.19640465310009 -25.864084161149677 M87.5289379730657 -26.1336672425804 C88.18998073642659 -26.026794975063407, 88.85102349978749 -25.91992270754641, 89.19640465310009 -25.864084161149677 M89.19640465310009 -25.864084161149677 C89.69463480634698 -25.75036637992667, 90.19286495959386 -25.636648598703665, 90.84317309667476 -25.488220010072133 M89.19640465310009 -25.864084161149677 C89.62585154032972 -25.76606571154235, 90.05529842755935 -25.668047261935026, 90.84317309667476 -25.488220010072133 M90.84317309667476 -25.488220010072133 C91.3452098826284 -25.33921812724596, 91.84724666858203 -25.190216244419783, 92.46247637902435 -25.007619295767157 M90.84317309667476 -25.488220010072133 C91.2991450661691 -25.352889922971922, 91.75511703566346 -25.217559835871707, 92.46247637902435 -25.007619295767157 M92.46247637902435 -25.007619295767157 C93.09486249922458 -24.77489535782026, 93.7272486194248 -24.542171419873362, 94.04766043562222 -24.424256909658354 M92.46247637902435 -25.007619295767157 C92.95642537431321 -24.825841499486398, 93.45037436960207 -24.64406370320564, 94.04766043562222 -24.424256909658354 M94.04766043562222 -24.424256909658354 C94.43196640841501 -24.254136055534627, 94.8162723812078 -24.0840152014109, 95.59221140515888 -23.74053001292109 M94.04766043562222 -24.424256909658354 C94.4666239666888 -24.238794182566757, 94.88558749775538 -24.05333145547516, 95.59221140515888 -23.74053001292109 M95.59221140515888 -23.74053001292109 C95.95288671396314 -23.552365935341466, 96.3135620227674 -23.364201857761845, 97.08978239639535 -22.959248186033022 M95.59221140515888 -23.74053001292109 C95.90327910922844 -23.578246190956374, 96.214346813298 -23.41596236899166, 97.08978239639535 -22.959248186033022 M97.08978239639535 -22.959248186033022 C97.49800673107191 -22.71178019535962, 97.90623106574847 -22.464312204686212, 98.53421956890071 -22.083621883605243 M97.08978239639535 -22.959248186033022 C97.6276109344171 -22.633213365652914, 98.16543947243888 -22.30717854527281, 98.53421956890071 -22.083621883605243 M98.53421956890071 -22.083621883605243 C98.9934703127868 -21.76326844531459, 99.45272105667289 -21.442915007023938, 99.91958742050231 -21.117249241935692 M98.53421956890071 -22.083621883605243 C98.81819456067495 -21.885533222422794, 99.1021695524492 -21.687444561240344, 99.91958742050231 -21.117249241935692 M99.91958742050231 -21.117249241935692 C100.26128966110068 -20.844750798137003, 100.60299190169904 -20.572252354338318, 101.24019317753744 -20.064101293495277 M99.91958742050231 -21.117249241935692 C100.35369115910858 -20.771063062382833, 100.78779489771485 -20.42487688282997, 101.24019317753744 -20.064101293495277 M101.24019317753744 -20.064101293495277 C101.55181324448841 -19.78109619370555, 101.8634333114394 -19.49809109391583, 102.4906101876814 -18.928505649103652 M101.24019317753744 -20.064101293495277 C101.583196740824 -19.752594532695387, 101.92620030411057 -19.441087771895493, 102.4906101876814 -18.928505649103652 M102.4906101876814 -18.928505649103652 C102.78402262961056 -18.6255332132023, 103.07743507153974 -18.32256077730095, 103.66570021922591 -17.71512871484814 M102.4906101876814 -18.928505649103652 C102.9372595248203 -18.467303537915168, 103.38390886195923 -18.006101426726687, 103.66570021922591 -17.71512871484814 M103.66570021922591 -17.71512871484814 C104.05795430723988 -17.254364743177025, 104.45020839525385 -16.793600771505908, 104.76063457517533 -16.428956516820115 M103.66570021922591 -17.71512871484814 C103.89750101507789 -17.442842310201467, 104.12930181092987 -17.170555905554796, 104.76063457517533 -16.428956516820115 M104.76063457517533 -16.428956516820115 C105.03876345416695 -16.05628915703347, 105.31689233315858 -15.683621797246824, 105.77091393539837 -15.075274212464363 M104.76063457517533 -16.428956516820115 C105.11773785013217 -15.95047066115556, 105.47484112508901 -15.471984805491006, 105.77091393539837 -15.075274212464363 M105.77091393539837 -15.075274212464363 C106.07097081843887 -14.614306263559284, 106.37102770147936 -14.153338314654205, 106.69238684529965 -13.659644372733409 M105.77091393539837 -15.075274212464363 C106.06535858027264 -14.622928168479556, 106.35980322514693 -14.17058212449475, 106.69238684529965 -13.659644372733409 M106.69238684529965 -13.659644372733409 C106.86589458738436 -13.35156380709795, 107.03940232946906 -13.04348324146249, 107.52126677503705 -12.187884124290365 M106.69238684529965 -13.659644372733409 C106.98139711626897 -13.146477371164023, 107.27040738723827 -12.633310369594637, 107.52126677503705 -12.187884124290365 M107.52126677503705 -12.187884124290365 C107.76393308508479 -11.683982339248988, 108.00659939513253 -11.180080554207612, 108.2541476791851 -10.666041245687675 M107.52126677503705 -12.187884124290365 C107.77302005834794 -11.665113044837971, 108.02477334165883 -11.142341965385578, 108.2541476791851 -10.666041245687675 M108.2541476791851 -10.666041245687675 C108.46584128274577 -10.143153952075416, 108.67753488630645 -9.620266658463155, 108.88801799290619 -9.100369315747782 M108.2541476791851 -10.666041245687675 C108.39283123654165 -10.323490177752799, 108.53151479389821 -9.980939109817923, 108.88801799290619 -9.100369315747782 M108.88801799290619 -9.100369315747782 C109.05075636592981 -8.610227265039155, 109.21349473895344 -8.120085214330526, 109.42027300711648 -7.497302016266373 M108.88801799290619 -9.100369315747782 C109.06732760292613 -8.560317339474318, 109.24663721294607 -8.020265363200853, 109.42027300711648 -7.497302016266373 M109.42027300711648 -7.497302016266373 C109.58890689781727 -6.854227904633694, 109.75754078851806 -6.211153793001015, 109.84872557179423 -5.863426694633887 M109.42027300711648 -7.497302016266373 C109.52427003677343 -7.100716269586625, 109.62826706643038 -6.704130522906878, 109.84872557179423 -5.863426694633887 M109.84872557179423 -5.863426694633887 C109.9299835477464 -5.446184161998824, 110.01124152369856 -5.028941629363762, 110.17161508344843 -4.2054572950120805 M109.84872557179423 -5.863426694633887 C109.94040080458132 -5.392693749839565, 110.03207603736838 -4.921960805045243, 110.17161508344843 -4.2054572950120805 M110.17161508344843 -4.2054572950120805 C110.23907978807814 -3.682214368316762, 110.30654449270787 -3.1589714416214436, 110.38761471981607 -2.5302067692972967 M110.17161508344843 -4.2054572950120805 C110.2236979215515 -3.801513087604317, 110.27578075965458 -3.397568880196553, 110.38761471981607 -2.5302067692972967 M110.38761471981607 -2.5302067692972967 C110.42176455402452 -1.998295536250839, 110.45591438823296 -1.466384303204381, 110.49583689205957 -0.8445590812398202 M110.38761471981607 -2.5302067692972967 C110.4199721388773 -2.026213848980154, 110.45232955793853 -1.5222209286630108, 110.49583689205957 -0.8445590812398202 M110.49583689205957 -0.8445590812398202 C110.49583689205957 -0.4786876290185787, 110.49583689205957 -0.11281617679733724, 110.49583689205957 0.8445590812398137 M110.49583689205957 -0.8445590812398202 C110.49583689205957 -0.2669575491268207, 110.49583689205957 0.3106439829861788, 110.49583689205957 0.8445590812398137 M110.49583689205957 0.8445590812398137 C110.45905674431079 1.4174395708278993, 110.42227659656201 1.9903200604159847, 110.38761471981607 2.5302067692972785 M110.49583689205957 0.8445590812398137 C110.46087349405607 1.3891422270911349, 110.42591009605258 1.933725372942456, 110.38761471981607 2.5302067692972785 M110.38761471981607 2.5302067692972785 C110.33077109977802 2.9710746612699976, 110.27392747973997 3.4119425532427163, 110.17161508344843 4.205457295012063 M110.38761471981607 2.5302067692972785 C110.31668209703493 3.0803461843571207, 110.24574947425378 3.630485599416963, 110.17161508344843 4.205457295012063 M110.17161508344843 4.205457295012063 C110.05862322908274 4.785646586342995, 109.94563137471705 5.365835877673927, 109.84872557179423 5.8634266946338816 M110.17161508344843 4.205457295012063 C110.08263999597611 4.662325564291003, 109.9936649085038 5.119193833569945, 109.84872557179423 5.8634266946338816 M109.84872557179423 5.8634266946338816 C109.70577696610323 6.4085516824512965, 109.56282836041223 6.9536766702687105, 109.42027300711648 7.497302016266356 M109.84872557179423 5.8634266946338816 C109.7097123441108 6.393544380504829, 109.57069911642736 6.923662066375776, 109.42027300711648 7.497302016266356 M109.42027300711648 7.497302016266356 C109.22627286901484 8.081599522504103, 109.0322727309132 8.665897028741849, 108.88801799290619 9.100369315747765 M109.42027300711648 7.497302016266356 C109.26637771404945 7.960810119099154, 109.11248242098243 8.424318221931953, 108.88801799290619 9.100369315747765 M108.88801799290619 9.100369315747765 C108.73626357764556 9.475205655413538, 108.58450916238493 9.850041995079309, 108.2541476791851 10.666041245687667 M108.88801799290619 9.100369315747765 C108.71246395962687 9.533991172053996, 108.53690992634756 9.967613028360228, 108.2541476791851 10.666041245687667 M108.2541476791851 10.666041245687667 C108.04618712178547 11.097875792771116, 107.83822656438582 11.529710339854567, 107.52126677503705 12.187884124290358 M108.2541476791851 10.666041245687667 C108.05223014524832 11.0853273252505, 107.85031261131155 11.50461340481333, 107.52126677503705 12.187884124290358 M107.52126677503705 12.187884124290358 C107.19854927463274 12.760901724948681, 106.87583177422843 13.333919325607004, 106.69238684529965 13.659644372733403 M107.52126677503705 12.187884124290358 C107.2316103767247 12.702198390384805, 106.94195397841234 13.216512656479251, 106.69238684529965 13.659644372733403 M106.69238684529965 13.659644372733403 C106.40523443401962 14.10078758767856, 106.11808202273957 14.541930802623716, 105.77091393539838 15.075274212464347 M106.69238684529965 13.659644372733403 C106.48245248797838 13.982159920847092, 106.27251813065712 14.304675468960781, 105.77091393539838 15.075274212464347 M105.77091393539838 15.075274212464347 C105.50431684506988 15.43249002600997, 105.23771975474138 15.789705839555596, 104.76063457517533 16.428956516820108 M105.77091393539838 15.075274212464347 C105.5080691824994 15.427462235699386, 105.24522442960041 15.779650258934424, 104.76063457517533 16.428956516820108 M104.76063457517533 16.428956516820108 C104.47931052803662 16.75941575038101, 104.1979864808979 17.08987498394191, 103.66570021922593 17.715128714848124 M104.76063457517533 16.428956516820108 C104.49956516791065 16.73562349786331, 104.23849576064597 17.042290478906505, 103.66570021922593 17.715128714848124 M103.66570021922593 17.715128714848124 C103.21922250825465 18.17615360792776, 102.77274479728337 18.637178501007394, 102.49061018768141 18.928505649103645 M103.66570021922593 17.715128714848124 C103.34288694836901 18.04845992047033, 103.02007367751209 18.38179112609253, 102.49061018768141 18.928505649103645 M102.49061018768141 18.928505649103645 C102.0032637119537 19.371100823878415, 101.51591723622596 19.813695998653188, 101.24019317753746 20.06410129349526 M102.49061018768141 18.928505649103645 C102.1954318597657 19.196578796526104, 101.90025353185001 19.464651943948567, 101.24019317753746 20.06410129349526 M101.24019317753746 20.06410129349526 C100.72106833443777 20.478089541375013, 100.20194349133808 20.892077789254767, 99.91958742050231 21.11724924193569 M101.24019317753746 20.06410129349526 C100.93532686274399 20.307224066709693, 100.63046054795053 20.550346839924128, 99.91958742050231 21.11724924193569 M99.91958742050231 21.11724924193569 C99.57688133198614 21.3563061737771, 99.23417524346998 21.59536310561851, 98.53421956890072 22.083621883605232 M99.91958742050231 21.11724924193569 C99.38600684950003 21.48945194993624, 98.85242627849776 21.86165465793679, 98.53421956890072 22.083621883605232 M98.53421956890072 22.083621883605232 C98.16216117527493 22.309165868279003, 97.79010278164914 22.534709852952773, 97.08978239639535 22.95924818603302 M98.53421956890072 22.083621883605232 C98.0431520276858 22.38130991292291, 97.55208448647089 22.678997942240585, 97.08978239639535 22.95924818603302 M97.08978239639535 22.95924818603302 C96.5891973589307 23.220403079438302, 96.08861232146607 23.48155797284359, 95.59221140515888 23.740530012921088 M97.08978239639535 22.95924818603302 C96.72149061404994 23.151385772980476, 96.35319883170453 23.343523359927932, 95.59221140515888 23.740530012921088 M95.59221140515888 23.740530012921088 C95.24730284147103 23.89321080271668, 94.90239427778317 24.045891592512273, 94.04766043562222 24.424256909658354 M95.59221140515888 23.740530012921088 C95.06128048426724 23.975557382093626, 94.53034956337561 24.21058475126617, 94.04766043562222 24.424256909658354 M94.04766043562222 24.424256909658354 C93.55596381056105 24.60520581287464, 93.06426718549989 24.786154716090927, 92.46247637902437 25.00761929576715 M94.04766043562222 24.424256909658354 C93.70365007060222 24.55085590398267, 93.35963970558221 24.677454898306983, 92.46247637902437 25.00761929576715 M92.46247637902437 25.00761929576715 C92.05006288084606 25.130021457223844, 91.63764938266775 25.25242361868054, 90.84317309667479 25.488220010072126 M92.46247637902437 25.00761929576715 C92.01645456428972 25.13999622916411, 91.57043274955507 25.272373162561077, 90.84317309667479 25.488220010072126 M90.84317309667479 25.488220010072126 C90.24245433136866 25.62533014819696, 89.64173556606254 25.76244028632179, 89.1964046531001 25.864084161149673 M90.84317309667479 25.488220010072126 C90.2402379969458 25.625836012066046, 89.6373028972168 25.76345201405996, 89.1964046531001 25.864084161149673 M89.1964046531001 25.864084161149673 C88.75576114565831 25.935323986191424, 88.31511763821652 26.00656381123318, 87.52893797306572 26.133667242580398 M89.1964046531001 25.864084161149673 C88.75593198052975 25.935296366934256, 88.3154593079594 26.00650857271884, 87.52893797306572 26.133667242580398 M87.52893797306572 26.133667242580398 C87.14409399614124 26.170792678191706, 86.75925001921675 26.20791811380301, 85.84762503483034 26.29586147965732 M87.52893797306572 26.133667242580398 C87.06033806817929 26.178872511830953, 86.59173816329286 26.224077781081508, 85.84762503483034 26.29586147965732 M85.84762503483034 26.29586147965732 C85.46935438601541 26.30799188310566, 85.09108373720048 26.320122286554003, 84.1593747138977 26.350000381469727 M85.84762503483034 26.29586147965732 C85.28833423864917 26.313796846897354, 84.729043442468 26.33173221413739, 84.1593747138977 26.350000381469727 M84.1593747138977 26.350000381469727 C84.1593747138977 26.350000381469727, 84.1593747138977 26.350000381469727, 84.1593747138977 26.350000381469727 M84.1593747138977 26.350000381469727 C84.1593747138977 26.350000381469727, 84.1593747138977 26.350000381469727, 84.1593747138977 26.350000381469727 M84.1593747138977 26.350000381469727 C19.34401638550287 26.350000381469727, -45.47134194289197 26.350000381469727, -84.1593747138977 26.350000381469727 M84.1593747138977 26.350000381469727 C22.017300008359342 26.350000381469727, -40.12477469717902 26.350000381469727, -84.1593747138977 26.350000381469727 M-84.1593747138977 26.350000381469727 C-84.69522525955661 26.332816697440258, -85.23107580521553 26.315633013410793, -85.84762503483033 26.29586147965732 M-84.1593747138977 26.350000381469727 C-84.50920170657791 26.338782110711406, -84.85902869925812 26.327563839953086, -85.84762503483033 26.29586147965732 M-85.84762503483033 26.29586147965732 C-86.3174143388771 26.250541470500227, -86.78720364292387 26.205221461343136, -87.52893797306571 26.133667242580398 M-85.84762503483033 26.29586147965732 C-86.22895119818189 26.259075403290602, -86.61027736153345 26.222289326923885, -87.52893797306571 26.133667242580398 M-87.52893797306571 26.133667242580398 C-87.93641116960679 26.06779013616547, -88.34388436614788 26.00191302975054, -89.19640465310009 25.864084161149673 M-87.52893797306571 26.133667242580398 C-88.07673238812248 26.045104089763154, -88.62452680317925 25.956540936945913, -89.19640465310009 25.864084161149673 M-89.19640465310009 25.864084161149673 C-89.59451844177383 25.773217286820152, -89.99263223044758 25.68235041249063, -90.84317309667476 25.488220010072133 M-89.19640465310009 25.864084161149673 C-89.67286450920528 25.755335308184794, -90.14932436531048 25.646586455219914, -90.84317309667476 25.488220010072133 M-90.84317309667476 25.488220010072133 C-91.48123488153476 25.29884662158034, -92.11929666639476 25.109473233088547, -92.46247637902434 25.00761929576716 M-90.84317309667476 25.488220010072133 C-91.34290294586515 25.33990281396793, -91.84263279505555 25.19158561786373, -92.46247637902434 25.00761929576716 M-92.46247637902434 25.00761929576716 C-92.99795762235826 24.810557248285928, -93.53343886569216 24.613495200804696, -94.04766043562222 24.424256909658354 M-92.46247637902434 25.00761929576716 C-93.0657070917056 24.785624817296874, -93.66893780438687 24.563630338826584, -94.04766043562222 24.424256909658354 M-94.04766043562222 24.424256909658354 C-94.44582292189266 24.248002188056937, -94.8439854081631 24.07174746645552, -95.59221140515886 23.740530012921095 M-94.04766043562222 24.424256909658354 C-94.43830781044491 24.251328904966993, -94.82895518526762 24.078400900275632, -95.59221140515886 23.740530012921095 M-95.59221140515886 23.740530012921095 C-95.90185798702082 23.578987589501814, -96.21150456888279 23.417445166082533, -97.08978239639535 22.959248186033026 M-95.59221140515886 23.740530012921095 C-96.17776759034126 23.435045726178082, -96.76332377552365 23.129561439435065, -97.08978239639535 22.959248186033026 M-97.08978239639535 22.959248186033026 C-97.47050814897182 22.7284499974283, -97.85123390154828 22.497651808823576, -98.5342195689007 22.08362188360525 M-97.08978239639535 22.959248186033026 C-97.4503801339182 22.740651718439146, -97.81097787144105 22.52205525084527, -98.5342195689007 22.08362188360525 M-98.5342195689007 22.08362188360525 C-98.84793152952717 21.864790000244117, -99.16164349015365 21.64595811688298, -99.9195874205023 21.117249241935696 M-98.5342195689007 22.08362188360525 C-98.88016783693054 21.842303347686784, -99.22611610496038 21.600984811768317, -99.9195874205023 21.117249241935696 M-99.9195874205023 21.117249241935696 C-100.19416435147504 20.89828144628393, -100.46874128244778 20.67931365063217, -101.24019317753744 20.06410129349528 M-99.9195874205023 21.117249241935696 C-100.42604887965908 20.713359705763615, -100.93251033881586 20.309470169591535, -101.24019317753744 20.06410129349528 M-101.24019317753744 20.06410129349528 C-101.69959800175693 19.64688198732471, -102.1590028259764 19.22966268115414, -102.4906101876814 18.928505649103663 M-101.24019317753744 20.06410129349528 C-101.49446349726621 19.83317971674161, -101.74873381699497 19.60225813998794, -102.4906101876814 18.928505649103663 M-102.4906101876814 18.928505649103663 C-102.92286745355757 18.48216453310497, -103.35512471943376 18.035823417106275, -103.66570021922591 17.715128714848134 M-102.4906101876814 18.928505649103663 C-102.82081920173633 18.5875377314277, -103.15102821579126 18.246569813751744, -103.66570021922591 17.715128714848134 M-103.66570021922591 17.715128714848134 C-103.9576142557221 17.37222987720047, -104.24952829221832 17.029331039552808, -104.76063457517533 16.42895651682012 M-103.66570021922591 17.715128714848134 C-103.9599240650234 17.369516643763298, -104.2541479108209 17.02390457267846, -104.76063457517533 16.42895651682012 M-104.76063457517533 16.42895651682012 C-104.97877246596823 16.136671615928304, -105.19691035676112 15.844386715036492, -105.77091393539837 15.075274212464365 M-104.76063457517533 16.42895651682012 C-105.1267928358049 15.938337805280266, -105.49295109643448 15.447719093740414, -105.77091393539837 15.075274212464365 M-105.77091393539837 15.075274212464365 C-105.96820606600517 14.7721805194973, -106.16549819661198 14.469086826530235, -106.69238684529964 13.659644372733421 M-105.77091393539837 15.075274212464365 C-105.99034668557246 14.738166582253127, -106.20977943574655 14.40105895204189, -106.69238684529964 13.659644372733421 M-106.69238684529964 13.659644372733421 C-106.86556459645362 13.352149739410669, -107.0387423476076 13.044655106087918, -107.52126677503705 12.187884124290367 M-106.69238684529964 13.659644372733421 C-106.96376437041529 13.177786096936348, -107.23514189553093 12.695927821139273, -107.52126677503705 12.187884124290367 M-107.52126677503705 12.187884124290367 C-107.68379572187237 11.850389288624443, -107.84632466870771 11.512894452958522, -108.2541476791851 10.666041245687678 M-107.52126677503705 12.187884124290367 C-107.80941340710365 11.589541477453823, -108.09756003917025 10.99119883061728, -108.2541476791851 10.666041245687678 M-108.2541476791851 10.666041245687678 C-108.46392830875898 10.147879034807625, -108.67370893833287 9.62971682392757, -108.88801799290619 9.100369315747784 M-108.2541476791851 10.666041245687678 C-108.43428303832776 10.221103425925046, -108.61441839747043 9.776165606162415, -108.88801799290619 9.100369315747784 M-108.88801799290619 9.100369315747784 C-109.02554652407444 8.686155292064692, -109.1630750552427 8.2719412683816, -109.42027300711648 7.4973020162663655 M-108.88801799290619 9.100369315747784 C-109.06704547265889 8.56116707088786, -109.24607295241161 8.021964826027936, -109.42027300711648 7.4973020162663655 M-109.42027300711648 7.4973020162663655 C-109.51520962062627 7.135267563164961, -109.61014623413605 6.773233110063556, -109.84872557179423 5.86342669463389 M-109.42027300711648 7.4973020162663655 C-109.50705214109256 7.166375568100973, -109.59383127506865 6.83544911993558, -109.84872557179423 5.86342669463389 M-109.84872557179423 5.86342669463389 C-109.91443164674156 5.526039886763238, -109.98013772168889 5.188653078892586, -110.17161508344843 4.205457295012083 M-109.84872557179423 5.86342669463389 C-109.97342570934305 5.223117843704139, -110.09812584689186 4.582808992774387, -110.17161508344843 4.205457295012083 M-110.17161508344843 4.205457295012083 C-110.2390854962872 3.682170096574535, -110.30655590912598 3.158882898136987, -110.38761471981607 2.530206769297312 M-110.17161508344843 4.205457295012083 C-110.25233801241691 3.5793861984778292, -110.3330609413854 2.9533151019435753, -110.38761471981607 2.530206769297312 M-110.38761471981607 2.530206769297312 C-110.41378948793647 2.122513627929586, -110.43996425605687 1.7148204865618606, -110.49583689205957 0.8445590812398235 M-110.38761471981607 2.530206769297312 C-110.41941523348858 2.034888099935367, -110.4512157471611 1.5395694305734229, -110.49583689205957 0.8445590812398235 M-110.49583689205957 0.8445590812398235 C-110.49583689205957 0.35433940026741273, -110.49583689205957 -0.13588028070499802, -110.49583689205957 -0.8445590812398106 M-110.49583689205957 0.8445590812398235 C-110.49583689205957 0.2676129233238381, -110.49583689205957 -0.30933323459214723, -110.49583689205957 -0.8445590812398106 M-110.49583689205957 -0.8445590812398106 C-110.46221924184202 -1.3681811190569513, -110.42860159162447 -1.8918031568740923, -110.38761471981607 -2.5302067692972754 M-110.49583689205957 -0.8445590812398106 C-110.45474047675906 -1.4846689219745248, -110.41364406145856 -2.124778762709239, -110.38761471981607 -2.5302067692972754 M-110.38761471981607 -2.5302067692972754 C-110.31301270799244 -3.108805241167819, -110.23841069616881 -3.6874037130383623, -110.17161508344843 -4.205457295012071 M-110.38761471981607 -2.5302067692972754 C-110.34118710791986 -2.890290158995334, -110.29475949602364 -3.2503735486933927, -110.17161508344843 -4.205457295012071 M-110.17161508344843 -4.205457295012071 C-110.08910473783044 -4.629130481192693, -110.00659439221246 -5.052803667373316, -109.84872557179423 -5.863426694633878 M-110.17161508344843 -4.205457295012071 C-110.05115020093606 -4.824019006451106, -109.9306853184237 -5.442580717890142, -109.84872557179423 -5.863426694633878 M-109.84872557179423 -5.863426694633878 C-109.69314507646874 -6.456722552323205, -109.53756458114324 -7.050018410012533, -109.42027300711648 -7.497302016266352 M-109.84872557179423 -5.863426694633878 C-109.72195200045032 -6.34686926618165, -109.59517842910638 -6.830311837729422, -109.42027300711648 -7.497302016266352 M-109.42027300711648 -7.497302016266352 C-109.24982780055379 -8.010655821677485, -109.07938259399108 -8.524009627088617, -108.88801799290619 -9.10036931574775 M-109.42027300711648 -7.497302016266352 C-109.2435528283718 -8.029555038108564, -109.06683264962713 -8.561808059950774, -108.88801799290619 -9.10036931574775 M-108.88801799290619 -9.10036931574775 C-108.6856393450619 -9.600248488648116, -108.48326069721762 -10.10012766154848, -108.2541476791851 -10.666041245687664 M-108.88801799290619 -9.10036931574775 C-108.7068465546982 -9.547866270832936, -108.52567511649022 -9.995363225918123, -108.2541476791851 -10.666041245687664 M-108.2541476791851 -10.666041245687664 C-108.00623340622217 -11.180840538010873, -107.75831913325922 -11.69563983033408, -107.52126677503705 -12.187884124290356 M-108.2541476791851 -10.666041245687664 C-108.100576088961 -10.984935938693615, -107.94700449873693 -11.303830631699567, -107.52126677503705 -12.187884124290356 M-107.52126677503705 -12.187884124290356 C-107.34835958223833 -12.49489835385635, -107.1754523894396 -12.801912583422343, -106.69238684529965 -13.659644372733412 M-107.52126677503705 -12.187884124290356 C-107.30383850992546 -12.573950025995286, -107.08641024481385 -12.960015927700217, -106.69238684529965 -13.659644372733412 M-106.69238684529965 -13.659644372733412 C-106.36982573472838 -14.155184858356991, -106.04726462415711 -14.65072534398057, -105.77091393539838 -15.075274212464356 M-106.69238684529965 -13.659644372733412 C-106.48871603784772 -13.972537426249152, -106.2850452303958 -14.28543047976489, -105.77091393539838 -15.075274212464356 M-105.77091393539838 -15.075274212464356 C-105.48992002768529 -15.451780449728293, -105.20892611997219 -15.82828668699223, -104.76063457517535 -16.428956516820108 M-105.77091393539838 -15.075274212464356 C-105.52703010786975 -15.402056323078972, -105.2831462803411 -15.728838433693587, -104.76063457517535 -16.428956516820108 M-104.76063457517535 -16.428956516820108 C-104.3680315725946 -16.890130343395153, -103.97542857001385 -17.351304169970202, -103.66570021922593 -17.715128714848124 M-104.76063457517535 -16.428956516820108 C-104.32937357696622 -16.935540224762523, -103.89811257875708 -17.442123932704934, -103.66570021922593 -17.715128714848124 M-103.66570021922593 -17.715128714848124 C-103.29093392656235 -18.10210568090812, -102.91616763389877 -18.489082646968118, -102.49061018768143 -18.928505649103638 M-103.66570021922593 -17.715128714848124 C-103.23159480368886 -18.163378197107583, -102.7974893881518 -18.61162767936704, -102.49061018768143 -18.928505649103638 M-102.49061018768143 -18.928505649103638 C-102.2350745471566 -19.160576356725727, -101.97953890663179 -19.39264706434782, -101.24019317753746 -20.064101293495256 M-102.49061018768143 -18.928505649103638 C-102.01842497026774 -19.357331770222498, -101.54623975285408 -19.78615789134136, -101.24019317753746 -20.064101293495256 M-101.24019317753746 -20.064101293495256 C-100.93279842366192 -20.30924042959305, -100.6254036697864 -20.554379565690848, -99.91958742050231 -21.117249241935685 M-101.24019317753746 -20.064101293495256 C-100.71608748586766 -20.482061635563728, -100.19198179419786 -20.900021977632203, -99.91958742050231 -21.117249241935685 M-99.91958742050231 -21.117249241935685 C-99.51910573487761 -21.396607929254724, -99.1186240492529 -21.675966616573767, -98.53421956890072 -22.083621883605232 M-99.91958742050231 -21.117249241935685 C-99.5041268419434 -21.4070565565398, -99.0886662633845 -21.69686387114392, -98.53421956890072 -22.083621883605232 M-98.53421956890072 -22.083621883605232 C-98.15175483627044 -22.31547425213796, -97.76929010364016 -22.547326620670688, -97.08978239639536 -22.959248186033015 M-98.53421956890072 -22.083621883605232 C-98.09865899045076 -22.34766126589968, -97.66309841200078 -22.611700648194127, -97.08978239639536 -22.959248186033015 M-97.08978239639536 -22.959248186033015 C-96.56687028413725 -23.23205110005688, -96.04395817187914 -23.50485401408074, -95.59221140515888 -23.740530012921088 M-97.08978239639536 -22.959248186033015 C-96.7255642179812 -23.149260576418804, -96.36134603956704 -23.339272966804593, -95.59221140515888 -23.740530012921088 M-95.59221140515888 -23.740530012921088 C-95.08148461267139 -23.966613613783288, -94.5707578201839 -24.192697214645484, -94.04766043562223 -24.42425690965835 M-95.59221140515888 -23.740530012921088 C-95.03902298472097 -23.985410116897498, -94.48583456428305 -24.23029022087391, -94.04766043562223 -24.42425690965835 M-94.04766043562223 -24.42425690965835 C-93.51064706422414 -24.621882794430036, -92.97363369282606 -24.81950867920172, -92.46247637902438 -25.00761929576715 M-94.04766043562223 -24.42425690965835 C-93.50330835306006 -24.62458350797672, -92.9589562704979 -24.82491010629509, -92.46247637902438 -25.00761929576715 M-92.46247637902438 -25.00761929576715 C-91.91185603685668 -25.171040523057368, -91.36123569468897 -25.334461750347586, -90.8431730966748 -25.488220010072123 M-92.46247637902438 -25.00761929576715 C-91.85986808741643 -25.186470273560918, -91.25725979580848 -25.365321251354686, -90.8431730966748 -25.488220010072123 M-90.8431730966748 -25.488220010072123 C-90.48941650932184 -25.568962642657965, -90.1356599219689 -25.649705275243804, -89.1964046531001 -25.864084161149673 M-90.8431730966748 -25.488220010072123 C-90.46572284529312 -25.574370566856913, -90.08827259391143 -25.660521123641708, -89.1964046531001 -25.864084161149673 M-89.1964046531001 -25.864084161149673 C-88.59480330493601 -25.96134640163271, -87.9932019567719 -26.058608642115747, -87.52893797306572 -26.133667242580398 M-89.1964046531001 -25.864084161149673 C-88.54150134175431 -25.96996384967703, -87.88659803040854 -26.07584353820438, -87.52893797306572 -26.133667242580398 M-87.52893797306572 -26.133667242580398 C-87.13561150293792 -26.17161097410934, -86.74228503281012 -26.20955470563828, -85.84762503483034 -26.29586147965732 M-87.52893797306572 -26.133667242580398 C-87.023844815539 -26.182392972023607, -86.51875165801226 -26.231118701466812, -85.84762503483034 -26.29586147965732 M-85.84762503483034 -26.29586147965732 C-85.19189584535775 -26.316889438464266, -84.53616665588517 -26.337917397271212, -84.15937471389772 -26.350000381469727 M-85.84762503483034 -26.29586147965732 C-85.49589569396856 -26.307140755019127, -85.14416635310678 -26.318420030380935, -84.15937471389772 -26.350000381469727 M-84.15937471389772 -26.350000381469727 C-84.15937471389772 -26.350000381469727, -84.1593747138977 -26.350000381469727, -84.1593747138977 -26.350000381469727 M-84.15937471389772 -26.350000381469727 C-84.15937471389772 -26.350000381469727, -84.1593747138977 -26.350000381469727, -84.1593747138977 -26.350000381469727" stroke="#455066" stroke-width="1.3" fill="none" stroke-dasharray="0 0" style=""/></g><g class="label" style="" transform="translate(0, -18.850000381469727)"><rect/><g><rect class="background" style="stroke: none"/><text y="-10.1" style=""><tspan class="text-outer-tspan row" x="0" y="-0.1em" dy="1.1em"><tspan font-style="normal" class="text-inner-tspan" font-weight="normal">Answer</tspan><tspan font-style="normal" class="text-inner-tspan" font-weight="normal"> with</tspan><tspan font-style="normal" class="text-inner-tspan" font-weight="normal"> citations</tspan><tspan font-style="normal" class="text-inner-tspan" font-weight="normal"> and</tspan></tspan><tspan class="text-outer-tspan row" x="0" y="1em" dy="1.1em"><tspan font-style="normal" class="text-inner-tspan" font-weight="normal">uncertainty</tspan></tspan></text></g></g></g></g></g></g><defs><filter id="project42-grounded-answer-workflow-drop-shadow" height="130%" width="130%"><feDropShadow dx="4" dy="4" stdDeviation="0" flood-opacity="0.06" flood-color="#000000"/></filter></defs><defs><filter id="project42-grounded-answer-workflow-drop-shadow-small" height="150%" width="150%"><feDropShadow dx="2" dy="2" stdDeviation="0" flood-opacity="0.06" flood-color="#000000"/></filter></defs><linearGradient id="project42-grounded-answer-workflow-gradient" gradientUnits="objectBoundingBox" x1="0%" y1="0%" x2="100%" y2="0%"><stop offset="0%" stop-color="#455066" stop-opacity="1"/><stop offset="100%" stop-color="#526f1b" stop-opacity="1"/></linearGradient></svg>