<!-- project42:source-sha256=bb7320b9964e2fac205eb30ebda50d9078a9abdfda571e41c7775f9b7088c63c; renderer=@mermaid-js/mermaid-cli@11.15.0 -->
<svg id="project42-learning-evidence-loop" width="100%" xmlns="http://www.w3.org/2000/svg" xmlns:xlink="http://www.w3.org/1999/xlink" class="flowchart" style="max-width: 1948.53px; background-color: transparent;" viewBox="0 0 1948.529052734375 278.8340759277344" role="graphics-document document" aria-roledescription="flowchart-v2" aria-describedby="chart-desc-project42-learning-evidence-loop" aria-labelledby="chart-title-project42-learning-evidence-loop"><title id="chart-title-project42-learning-evidence-loop">The learning evidence loop</title><desc id="chart-desc-project42-learning-evidence-loop">Learn, practice, complete a knowledge check, revise from feedback when needed, record verified evidence in a transcript, and earn a badge after completing the path.</desc><style>#project42-learning-evidence-loop{font-family:Inter,Arial,sans-serif;font-size:17px;fill:#111827;}@keyframes edge-animation-frame{from{stroke-dashoffset:0;}}@keyframes dash{to{stroke-dashoffset:0;}}#project42-learning-evidence-loop .edge-animation-slow{stroke-dasharray:9,5!important;stroke-dashoffset:900;animation:dash 50s linear infinite;stroke-linecap:round;}#project42-learning-evidence-loop .edge-animation-fast{stroke-dasharray:9,5!important;stroke-dashoffset:900;animation:dash 20s linear infinite;stroke-linecap:round;}#project42-learning-evidence-loop .error-icon{fill:#dff7fa;}#project42-learning-evidence-loop .error-text{fill:#111827;stroke:#111827;}#project42-learning-evidence-loop .edge-thickness-normal{stroke-width:1px;}#project42-learning-evidence-loop .edge-thickness-thick{stroke-width:3.5px;}#project42-learning-evidence-loop .edge-pattern-solid{stroke-dasharray:0;}#project42-learning-evidence-loop .edge-thickness-invisible{stroke-width:0;fill:none;}#project42-learning-evidence-loop .edge-pattern-dashed{stroke-dasharray:3;}#project42-learning-evidence-loop .edge-pattern-dotted{stroke-dasharray:2;}#project42-learning-evidence-loop .marker{fill:#455066;stroke:#455066;}#project42-learning-evidence-loop .marker.cross{stroke:#455066;}#project42-learning-evidence-loop svg{font-family:Inter,Arial,sans-serif;font-size:17px;}#project42-learning-evidence-loop p{margin:0;}#project42-learning-evidence-loop .label{font-family:Inter,Arial,sans-serif;color:#111827;}#project42-learning-evidence-loop .cluster-label text{fill:#111827;}#project42-learning-evidence-loop .cluster-label span{color:#111827;}#project42-learning-evidence-loop .cluster-label span p{background-color:transparent;}#project42-learning-evidence-loop .label text,#project42-learning-evidence-loop span{fill:#111827;color:#111827;}#project42-learning-evidence-loop .node rect,#project42-learning-evidence-loop .node circle,#project42-learning-evidence-loop .node ellipse,#project42-learning-evidence-loop .node polygon,#project42-learning-evidence-loop .node path{fill:#f6f3eb;stroke:#455066;stroke-width:1px;}#project42-learning-evidence-loop .rough-node .label text,#project42-learning-evidence-loop .node .label text,#project42-learning-evidence-loop .image-shape .label,#project42-learning-evidence-loop .icon-shape .label{text-anchor:middle;}#project42-learning-evidence-loop .node .katex path{fill:#000;stroke:#000;stroke-width:1px;}#project42-learning-evidence-loop .rough-node .label,#project42-learning-evidence-loop .node .label,#project42-learning-evidence-loop .image-shape .label,#project42-learning-evidence-loop .icon-shape .label{text-align:center;}#project42-learning-evidence-loop .node.clickable{cursor:pointer;}#project42-learning-evidence-loop .root .anchor path{fill:#455066!important;stroke-width:0;stroke:#455066;}#project42-learning-evidence-loop .arrowheadPath{fill:rgba(255, 255, 255, 0);}#project42-learning-evidence-loop .edgePath .path{stroke:#455066;stroke-width:1px;}#project42-learning-evidence-loop .flowchart-link{stroke:#455066;fill:none;}#project42-learning-evidence-loop .edgeLabel{background-color:#c9f25f;text-align:center;}#project42-learning-evidence-loop .edgeLabel p{background-color:#c9f25f;}#project42-learning-evidence-loop .edgeLabel rect{opacity:0.5;background-color:#c9f25f;fill:#c9f25f;}#project42-learning-evidence-loop .labelBkg{background-color:rgba(201, 242, 95, 0.5);}#project42-learning-evidence-loop .cluster rect{fill:#dff7fa;stroke:#247b86;stroke-width:1px;}#project42-learning-evidence-loop .cluster text{fill:#111827;}#project42-learning-evidence-loop .cluster span{color:#111827;}#project42-learning-evidence-loop div.mermaidTooltip{position:absolute;text-align:center;max-width:200px;padding:2px;font-family:Inter,Arial,sans-serif;font-size:12px;background:#dff7fa;border:1px solid #247b86;border-radius:2px;pointer-events:none;z-index:100;}#project42-learning-evidence-loop .flowchartTitleText{text-anchor:middle;font-size:18px;fill:#111827;}#project42-learning-evidence-loop rect.text{fill:none;stroke-width:0;}#project42-learning-evidence-loop .icon-shape,#project42-learning-evidence-loop .image-shape{background-color:#c9f25f;text-align:center;}#project42-learning-evidence-loop .icon-shape p,#project42-learning-evidence-loop .image-shape p{background-color:#c9f25f;padding:2px;}#project42-learning-evidence-loop .icon-shape .label rect,#project42-learning-evidence-loop .image-shape .label rect{opacity:0.5;background-color:#c9f25f;fill:#c9f25f;}#project42-learning-evidence-loop .label-icon{display:inline-block;height:1em;overflow:visible;vertical-align:-0.125em;}#project42-learning-evidence-loop .node .label-icon path{fill:currentColor;stroke:revert;stroke-width:revert;}#project42-learning-evidence-loop .node .neo-node{stroke:#455066;}#project42-learning-evidence-loop [data-look="neo"].node rect,#project42-learning-evidence-loop [data-look="neo"].cluster rect,#project42-learning-evidence-loop [data-look="neo"].node polygon{stroke:url(#project42-learning-evidence-loop-gradient);filter:drop-shadow( 1px 2px 2px rgba(185,185,185,1));}#project42-learning-evidence-loop [data-look="neo"].swimlane.cluster rect{filter:none;}#project42-learning-evidence-loop [data-look="neo"].node path{stroke:url(#project42-learning-evidence-loop-gradient);stroke-width:1px;}#project42-learning-evidence-loop [data-look="neo"].node .outer-path{filter:drop-shadow( 1px 2px 2px rgba(185,185,185,1));}#project42-learning-evidence-loop [data-look="neo"].node .neo-line path{stroke:#455066;filter:none;}#project42-learning-evidence-loop [data-look="neo"].node circle{stroke:url(#project42-learning-evidence-loop-gradient);filter:drop-shadow( 1px 2px 2px rgba(185,185,185,1));}#project42-learning-evidence-loop [data-look="neo"].node circle .state-start{fill:#000000;}#project42-learning-evidence-loop [data-look="neo"].icon-shape .icon{fill:url(#project42-learning-evidence-loop-gradient);filter:drop-shadow( 1px 2px 2px rgba(185,185,185,1));}#project42-learning-evidence-loop [data-look="neo"].icon-shape .icon-neo path{stroke:url(#project42-learning-evidence-loop-gradient);filter:drop-shadow( 1px 2px 2px rgba(185,185,185,1));}#project42-learning-evidence-loop :root{--mermaid-font-family:Inter,Arial,sans-serif;}</style><g><marker id="project42-learning-evidence-loop_flowchart-v2-pointEnd" class="marker flowchart-v2" viewBox="0 0 10 10" refX="5" refY="5" markerUnits="userSpaceOnUse" markerWidth="8" markerHeight="8" orient="auto"><path d="M 0 0 L 10 5 L 0 10 z" class="arrowMarkerPath" style="stroke-width: 1; stroke-dasharray: 1, 0;"/></marker><marker id="project42-learning-evidence-loop_flowchart-v2-pointStart" class="marker flowchart-v2" viewBox="0 0 10 10" refX="4.5" refY="5" markerUnits="userSpaceOnUse" markerWidth="8" markerHeight="8" orient="auto"><path d="M 0 5 L 10 10 L 10 0 z" class="arrowMarkerPath" style="stroke-width: 1; stroke-dasharray: 1, 0;"/></marker><marker id="project42-learning-evidence-loop_flowchart-v2-pointEnd-margin" class="marker flowchart-v2" viewBox="0 0 11.5 14" refX="11.5" refY="7" markerUnits="userSpaceOnUse" markerWidth="10.5" markerHeight="14" orient="auto"><path d="M 0 0 L 11.5 7 L 0 14 z" class="arrowMarkerPath" style="stroke-width: 0; stroke-dasharray: 1, 0;"/></marker><marker id="project42-learning-evidence-loop_flowchart-v2-pointStart-margin" class="marker flowchart-v2" viewBox="0 0 11.5 14" refX="1" refY="7" markerUnits="userSpaceOnUse" markerWidth="11.5" markerHeight="14" orient="auto"><polygon points="0,7 11.5,14 11.5,0" class="arrowMarkerPath" style="stroke-width: 0; stroke-dasharray: 1, 0;"/></marker><marker id="project42-learning-evidence-loop_flowchart-v2-circleEnd" class="marker flowchart-v2" viewBox="0 0 10 10" refX="11" refY="5" markerUnits="userSpaceOnUse" markerWidth="11" markerHeight="11" orient="auto"><circle cx="5" cy="5" r="5" class="arrowMarkerPath" style="stroke-width: 1; stroke-dasharray: 1, 0;"/></marker><marker id="project42-learning-evidence-loop_flowchart-v2-circleStart" class="marker flowchart-v2" viewBox="0 0 10 10" refX="-1" refY="5" markerUnits="userSpaceOnUse" markerWidth="11" markerHeight="11" orient="auto"><circle cx="5" cy="5" r="5" class="arrowMarkerPath" style="stroke-width: 1; stroke-dasharray: 1, 0;"/></marker><marker id="project42-learning-evidence-loop_flowchart-v2-circleEnd-margin" class="marker flowchart-v2" viewBox="0 0 10 10" refY="5" refX="12.25" markerUnits="userSpaceOnUse" markerWidth="14" markerHeight="14" orient="auto"><circle cx="5" cy="5" r="5" class="arrowMarkerPath" style="stroke-width: 0; stroke-dasharray: 1, 0;"/></marker><marker id="project42-learning-evidence-loop_flowchart-v2-circleStart-margin" class="marker flowchart-v2" viewBox="0 0 10 10" refX="-2" refY="5" markerUnits="userSpaceOnUse" markerWidth="14" markerHeight="14" orient="auto"><circle cx="5" cy="5" r="5" class="arrowMarkerPath" style="stroke-width: 0; stroke-dasharray: 1, 0;"/></marker><marker id="project42-learning-evidence-loop_flowchart-v2-crossEnd" class="marker cross flowchart-v2" viewBox="0 0 11 11" refX="12" refY="5.2" markerUnits="userSpaceOnUse" markerWidth="11" markerHeight="11" orient="auto"><path d="M 1,1 l 9,9 M 10,1 l -9,9" class="arrowMarkerPath" style="stroke-width: 2; stroke-dasharray: 1, 0;"/></marker><marker id="project42-learning-evidence-loop_flowchart-v2-crossStart" class="marker cross flowchart-v2" viewBox="0 0 11 11" refX="-1" refY="5.2" markerUnits="userSpaceOnUse" markerWidth="11" markerHeight="11" orient="auto"><path d="M 1,1 l 9,9 M 10,1 l -9,9" class="arrowMarkerPath" style="stroke-width: 2; stroke-dasharray: 1, 0;"/></marker><marker id="project42-learning-evidence-loop_flowchart-v2-crossEnd-margin" class="marker cross flowchart-v2" viewBox="0 0 15 15" refX="17.7" refY="7.5" markerUnits="userSpaceOnUse" markerWidth="12" markerHeight="12" orient="auto"><path d="M 1,1 L 14,14 M 1,14 L 14,1" class="arrowMarkerPath" style="stroke-width: 2.5;"/></marker><marker id="project42-learning-evidence-loop_flowchart-v2-crossStart-margin" class="marker cross flowchart-v2" viewBox="0 0 15 15" refX="-3.5" refY="7.5" markerUnits="userSpaceOnUse" markerWidth="12" markerHeight="12" orient="auto"><path d="M 1,1 L 14,14 M 1,14 L 14,1" class="arrowMarkerPath" style="stroke-width: 2.5; stroke-dasharray: 1, 0;"/></marker><g class="root"><g class="clusters"/><g class="edgePaths"><path d="M182.093,162.756L198.324,154.936C214.555,147.116,247.017,131.477,266.748,123.657C286.479,115.837,293.479,115.837,296.979,115.837L300.479,115.837" id="project42-learning-evidence-loop-L_L_P_0" class="edge-thickness-normal edge-pattern-solid edge-thickness-normal edge-pattern-solid flowchart-link" style=";" data-edge="true" data-et="edge" data-id="L_L_P_0" data-points="W3sieCI6MTgyLjA5MjcxMzUwODY4MTg0LCJ5IjoxNjIuNzU1OTU0NzQyNDMxNjR9LHsieCI6Mjc5LjQ3OTAwMzkwNjI1LCJ5IjoxMTUuODM3MzAzMTYxNjIxMX0seyJ4IjozMDQuNDc5MDAzOTA2MjUsInkiOjExNS44MzczMDMxNjE2MjExfV0=" data-look="classic" marker-end="url(#project42-learning-evidence-loop_flowchart-v2-pointEnd)"/><path d="M512.951,91.337L522.382,88.725C531.812,86.112,550.674,80.887,563.605,78.275C576.536,75.662,583.536,75.662,587.036,75.662L590.536,75.662" id="project42-learning-evidence-loop-L_P_K_0" class="edge-thickness-normal edge-pattern-solid edge-thickness-normal edge-pattern-solid flowchart-link" style=";" data-edge="true" data-et="edge" data-id="L_P_K_0" data-points="W3sieCI6NTEyLjk1MDYyNzM5MDU3LCJ5Ijo5MS4zMzczMDMxNjE2MjExfSx7IngiOjU2OS41MzYxMzI4MTI1LCJ5Ijo3NS42NjIzMDM5MjQ1NjA1NX0seyJ4Ijo1OTQuNTM2MTMyODEyNSwieSI6NzUuNjYyMzAzOTI0NTYwNTV9XQ==" data-look="classic" marker-end="url(#project42-learning-evidence-loop_flowchart-v2-pointEnd)"/><path d="M842.211,75.662L848.567,75.662C854.924,75.662,867.637,75.662,883.586,78.302C899.534,80.942,918.72,86.222,928.312,88.862L937.905,91.502" id="project42-learning-evidence-loop-L_K_F_0" class="edge-thickness-normal edge-pattern-solid edge-thickness-normal edge-pattern-solid flowchart-link" style=";" data-edge="true" data-et="edge" data-id="L_K_F_0" data-points="W3sieCI6ODQyLjIxMDkzNzUsInkiOjc1LjY2MjMwMzkyNDU2MDU1fSx7IngiOjg4MC4zNDkzNjUyMzQzNzUsInkiOjc1LjY2MjMwMzkyNDU2MDU1fSx7IngiOjk0MS43NjEyMDk5OTU2Mjk4LCJ5Ijo5Mi41NjM4ODYxMzQ3NDEyNH1d" data-look="classic" marker-end="url(#project42-learning-evidence-loop_flowchart-v2-pointEnd)"/><path d="M948.259,145.608L936.941,149.925C925.622,154.241,902.986,162.873,864.672,167.19C826.357,171.506,772.365,171.506,720.563,171.506C668.761,171.506,619.149,171.506,581.431,166.55C543.714,161.594,517.892,151.682,504.981,146.727L492.07,141.771" id="project42-learning-evidence-loop-L_F_P_0" class="edge-thickness-normal edge-pattern-solid edge-thickness-normal edge-pattern-solid flowchart-link" style=";" data-edge="true" data-et="edge" data-id="L_F_P_0" data-points="W3sieCI6OTQ4LjI1ODgwNDYwNTA4NDYsInkiOjE0NS42MDgzMTQ3OTc5NTU3M30seyJ4Ijo4ODAuMzQ5MzY1MjM0Mzc1LCJ5IjoxNzEuNTA1OTU0NzQyNDMxNjR9LHsieCI6NzE4LjM3MzUzNTE1NjI1LCJ5IjoxNzEuNTA1OTU0NzQyNDMxNjR9LHsieCI6NTY5LjUzNjEzMjgxMjUsInkiOjE3MS41MDU5NTQ3NDI0MzE2NH0seyJ4Ijo0ODguMzM1MjI5NDk3MjM0OSwieSI6MTQwLjMzNzMwMzE2MTYyMTF9XQ==" data-look="classic" marker-end="url(#project42-learning-evidence-loop_flowchart-v2-pointEnd)"/><path d="M1134.162,115.837L1141.098,115.837C1148.035,115.837,1161.907,115.837,1175.112,115.837C1188.318,115.837,1200.856,115.837,1207.126,115.837L1213.395,115.837" id="project42-learning-evidence-loop-L_F_T_0" class="edge-thickness-normal edge-pattern-solid edge-thickness-normal edge-pattern-solid flowchart-link" style=";" data-edge="true" data-et="edge" data-id="L_F_T_0" data-points="W3sieCI6MTEzNC4xNjIzOTkyOTE5OTIsInkiOjExNS44MzczMDMxNjE2MjExfSx7IngiOjExNzUuNzc4ODU0MzcwMTE3MiwieSI6MTE1LjgzNzMwMzE2MTYyMTF9LHsieCI6MTIxNy4zOTUzMDk0NDgyNDIyLCJ5IjoxMTUuODM3MzAzMTYxNjIxMX1d" data-look="classic" marker-end="url(#project42-learning-evidence-loop_flowchart-v2-pointEnd)"/><path d="M1438.336,115.837L1442.502,115.837C1446.669,115.837,1455.002,115.837,1468.306,121.847C1481.609,127.857,1499.882,139.876,1509.019,145.886L1518.156,151.896" id="project42-learning-evidence-loop-L_T_C_0" class="edge-thickness-normal edge-pattern-solid edge-thickness-normal edge-pattern-solid flowchart-link" style=";" data-edge="true" data-et="edge" data-id="L_T_C_0" data-points="W3sieCI6MTQzOC4zMzU3MzkxMzU3NDIyLCJ5IjoxMTUuODM3MzAzMTYxNjIxMX0seyJ4IjoxNDYzLjMzNTczOTEzNTc0MjIsInkiOjExNS44MzczMDMxNjE2MjExfSx7IngiOjE1MjEuNDk3NjQ5NjAxODAzLCJ5IjoxNTQuMDk0MDQ0Mjc2MzcwNjV9XQ==" data-look="classic" marker-end="url(#project42-learning-evidence-loop_flowchart-v2-pointEnd)"/><path d="M1521.498,220.418L1511.804,226.794C1502.11,233.17,1482.723,245.922,1450.451,252.298C1418.179,258.675,1373.022,258.675,1325.096,258.675C1277.17,258.675,1226.474,258.675,1176.218,258.675C1125.961,258.675,1076.143,258.675,1026.905,258.675C977.667,258.675,929.008,258.675,877.683,258.675C826.357,258.675,772.365,258.675,720.563,258.675C668.761,258.675,619.149,258.675,570.171,258.675C521.193,258.675,472.85,258.675,424.508,258.675C376.165,258.675,327.822,258.675,288.02,251.144C248.218,243.614,216.957,228.553,201.327,221.023L185.696,213.492" id="project42-learning-evidence-loop-L_C_L_0" class="edge-thickness-normal edge-pattern-solid edge-thickness-normal edge-pattern-solid flowchart-link" style=";" data-edge="true" data-et="edge" data-id="L_C_L_0" data-points="W3sieCI6MTUyMS40OTc2NDk2MDE4MDMyLCJ5IjoyMjAuNDE3ODY1MjA4NDkyNjZ9LHsieCI6MTQ2My4zMzU3MzkxMzU3NDIyLCJ5IjoyNTguNjc0NjA2MzIzMjQyMn0seyJ4IjoxMzI3Ljg2NTUyNDI5MTk5MjIsInkiOjI1OC42NzQ2MDYzMjMyNDIyfSx7IngiOjExNzUuNzc4ODU0MzcwMTE3MiwieSI6MjU4LjY3NDYwNjMyMzI0MjJ9LHsieCI6MTAyNi4zMjUwOTYxMzAzNzEsInkiOjI1OC42NzQ2MDYzMjMyNDIyfSx7IngiOjg4MC4zNDkzNjUyMzQzNzUsInkiOjI1OC42NzQ2MDYzMjMyNDIyfSx7IngiOjcxOC4zNzM1MzUxNTYyNSwieSI6MjU4LjY3NDYwNjMyMzI0MjJ9LHsieCI6NTY5LjUzNjEzMjgxMjUsInkiOjI1OC42NzQ2MDYzMjMyNDIyfSx7IngiOjQyNC41MDc1NjgzNTkzNzUsInkiOjI1OC42NzQ2MDYzMjMyNDIyfSx7IngiOjI3OS40NzkwMDM5MDYyNSwieSI6MjU4LjY3NDYwNjMyMzI0MjJ9LHsieCI6MTgyLjA5MjcxMzUwODY4MTg0LCJ5IjoyMTEuNzU1OTU0NzQyNDMxNjR9XQ==" data-look="classic" marker-end="url(#project42-learning-evidence-loop_flowchart-v2-pointEnd)"/><path d="M1655.492,187.256L1662.428,187.256C1669.364,187.256,1683.236,187.256,1696.525,187.331C1709.814,187.407,1722.52,187.558,1728.872,187.633L1735.225,187.708" id="project42-learning-evidence-loop-L_C_B_0" class="edge-thickness-normal edge-pattern-solid edge-thickness-normal edge-pattern-solid flowchart-link" style=";" data-edge="true" data-et="edge" data-id="L_C_B_0" data-points="W3sieCI6MTY1NS40OTE5ODkxMzU3NDIyLCJ5IjoxODcuMjU1OTU0NzQyNDMxNjR9LHsieCI6MTY5Ny4xMDg0NDQyMTM4NjcyLCJ5IjoxODcuMjU1OTU0NzQyNDMxNjR9LHsieCI6MTczOS4yMjQ4OTkyOTE5NjM4LCJ5IjoxODcuNzU1OTU0NzQyNDMxNjR9XQ==" data-look="classic" marker-end="url(#project42-learning-evidence-loop_flowchart-v2-pointEnd)"/></g><g class="edgeLabels"><g class="edgeLabel"><g class="label" data-id="L_L_P_0" transform="translate(0, 0)"><text y="-10.1" text-anchor="middle"><tspan class="text-outer-tspan row" x="0" y="-0.1em" dy="1.1em" text-anchor="middle"/></text></g></g><g><rect class="background" style="stroke: none"/></g><g class="edgeLabel"><g class="label" data-id="L_P_K_0" transform="translate(0, 0)"><text y="-10.1" text-anchor="middle"><tspan class="text-outer-tspan row" x="0" y="-0.1em" dy="1.1em" text-anchor="middle"/></text></g></g><g><rect class="background" style="stroke: none"/></g><g class="edgeLabel"><g class="label" data-id="L_K_F_0" transform="translate(0, 0)"><text y="-10.1" text-anchor="middle"><tspan class="text-outer-tspan row" x="0" y="-0.1em" dy="1.1em" text-anchor="middle"/></text></g></g><g><rect class="background" style="stroke: none"/></g><g class="edgeLabel" transform="translate(718.37353515625, 171.50595474243164)"><g class="label" data-id="L_F_P_0" transform="translate(-0.242431640625, -11.5)"><g><rect class="background" style="" x="-84.234375" y="0" width="168.95361328125" height="23"/><text y="-10.1" text-anchor="middle" style=""><tspan class="text-outer-tspan row" x="0" y="-0.1em" dy="1.1em" text-anchor="middle"><tspan font-style="normal" class="text-inner-tspan" font-weight="normal">Not</tspan><tspan font-style="normal" class="text-inner-tspan" font-weight="normal"> yet:</tspan><tspan font-style="normal" class="text-inner-tspan" font-weight="normal"> use</tspan><tspan font-style="normal" class="text-inner-tspan" font-weight="normal"> feedback</tspan></tspan></text></g></g></g><g class="edgeLabel" transform="translate(1175.7788543701172, 115.8373031616211)"><g class="label" data-id="L_F_T_0" transform="translate(0.250732421875, -11.5)"><g><rect class="background" style="" x="-16.8671875" y="0" width="33.23291015625" height="23"/><text y="-10.1" text-anchor="middle" style=""><tspan class="text-outer-tspan row" x="0" y="-0.1em" dy="1.1em" text-anchor="middle"><tspan font-style="normal" class="text-inner-tspan" font-weight="normal">Yes</tspan></tspan></text></g></g></g><g class="edgeLabel"><g class="label" data-id="L_T_C_0" transform="translate(0, 0)"><text y="-10.1" text-anchor="middle"><tspan class="text-outer-tspan row" x="0" y="-0.1em" dy="1.1em" text-anchor="middle"/></text></g></g><g><rect class="background" style="stroke: none"/></g><g class="edgeLabel" transform="translate(880.349365234375, 258.6746063232422)"><g class="label" data-id="L_C_L_0" transform="translate(-0.271240234375, -11.5)"><g><rect class="background" style="" x="-12.8671875" y="0" width="26.27685546875" height="23"/><text y="-10.1" text-anchor="middle" style=""><tspan class="text-outer-tspan row" x="0" y="-0.1em" dy="1.1em" text-anchor="middle"><tspan font-style="normal" class="text-inner-tspan" font-weight="normal">No</tspan></tspan></text></g></g></g><g class="edgeLabel" transform="translate(1697.1084442138672, 187.25595474243164)"><g class="label" data-id="L_C_B_0" transform="translate(0.250732421875, -11.5)"><g><rect class="background" style="" x="-16.8671875" y="0" width="33.23291015625" height="23"/><text y="-10.1" text-anchor="middle" style=""><tspan class="text-outer-tspan row" x="0" y="-0.1em" dy="1.1em" text-anchor="middle"><tspan font-style="normal" class="text-inner-tspan" font-weight="normal">Yes</tspan></tspan></text></g></g></g></g><g class="nodes"><g class="node default" id="project42-learning-evidence-loop-flowchart-L-0" data-look="classic" transform="translate(131.239501953125, 187.25595474243164)"><rect class="basic label-container" style="" x="-123.239501953125" y="-24.5" width="246.47900390625" height="49"/><g class="label" style="" transform="translate(0, -9.5)"><rect/><g><rect class="background" style="stroke: none"/><text y="-10.1" style=""><tspan class="text-outer-tspan row" x="0" y="-0.1em" dy="1.1em"><tspan font-style="normal" class="text-inner-tspan" font-weight="normal">Learn</tspan><tspan font-style="normal" class="text-inner-tspan" font-weight="normal"> a</tspan><tspan font-style="normal" class="text-inner-tspan" font-weight="normal"> focused</tspan><tspan font-style="normal" class="text-inner-tspan" font-weight="normal"> concept</tspan></tspan></text></g></g></g><g class="node default" id="project42-learning-evidence-loop-flowchart-P-1" data-look="classic" transform="translate(424.507568359375, 115.8373031616211)"><rect class="basic label-container" style="" x="-120.028564453125" y="-24.5" width="240.05712890625" height="49"/><g class="label" style="" transform="translate(0, -9.5)"><rect/><g><rect class="background" style="stroke: none"/><text y="-10.1" style=""><tspan class="text-outer-tspan row" x="0" y="-0.1em" dy="1.1em"><tspan font-style="normal" class="text-inner-tspan" font-weight="normal">Practice</tspan><tspan font-style="normal" class="text-inner-tspan" font-weight="normal"> with</tspan><tspan font-style="normal" class="text-inner-tspan" font-weight="normal"> a</tspan><tspan font-style="normal" class="text-inner-tspan" font-weight="normal"> real</tspan><tspan font-style="normal" class="text-inner-tspan" font-weight="normal"> task</tspan></tspan></text></g></g></g><g class="node default" id="project42-learning-evidence-loop-flowchart-K-3" data-look="classic" transform="translate(718.37353515625, 75.66230392456055)"><rect class="basic label-container" style="" x="-123.83740234375" y="-33.85000038146973" width="247.6748046875" height="67.70000076293945"/><g class="label" style="" transform="translate(0, -18.850000381469727)"><rect/><g><rect class="background" style="stroke: none"/><text y="-10.1" style=""><tspan class="text-outer-tspan row" x="0" y="-0.1em" dy="1.1em"><tspan font-style="normal" class="text-inner-tspan" font-weight="normal">Complete</tspan><tspan font-style="normal" class="text-inner-tspan" font-weight="normal"> the</tspan><tspan font-style="normal" class="text-inner-tspan" font-weight="normal"> knowledge</tspan></tspan><tspan class="text-outer-tspan row" x="0" y="1em" dy="1.1em"><tspan font-style="normal" class="text-inner-tspan" font-weight="normal">check</tspan></tspan></text></g></g></g><g class="node default" id="project42-learning-evidence-loop-flowchart-F-5" data-look="classic" transform="translate(1026.325096130371, 115.8373031616211)"><polygon points="107.83730506896973,0 215.67461013793945,-107.83730506896973 107.83730506896973,-215.67461013793945 0,-107.83730506896973" class="label-container" transform="translate(-107.33730506896973, 107.83730506896973)"/><g class="label" style="" transform="translate(0, -18.850000381469727)"><rect/><g><rect class="background" style="stroke: none"/><text y="-10.1" style=""><tspan class="text-outer-tspan row" x="0" y="-0.1em" dy="1.1em"><tspan font-style="normal" class="text-inner-tspan" font-weight="normal">Meets</tspan><tspan font-style="normal" class="text-inner-tspan" font-weight="normal"> the</tspan><tspan font-style="normal" class="text-inner-tspan" font-weight="normal"> evidence</tspan></tspan><tspan class="text-outer-tspan row" x="0" y="1em" dy="1.1em"><tspan font-style="normal" class="text-inner-tspan" font-weight="normal">threshold?</tspan></tspan></text></g></g></g><g class="node default" id="project42-learning-evidence-loop-flowchart-T-9" data-look="classic" transform="translate(1327.8655242919922, 115.8373031616211)"><rect class="basic label-container" style="" x="-110.47021484375" y="-33.85000038146973" width="220.9404296875" height="67.70000076293945"/><g class="label" style="" transform="translate(0, -18.850000381469727)"><rect/><g><rect class="background" style="stroke: none"/><text y="-10.1" style=""><tspan class="text-outer-tspan row" x="0" y="-0.1em" dy="1.1em"><tspan font-style="normal" class="text-inner-tspan" font-weight="normal">Record</tspan><tspan font-style="normal" class="text-inner-tspan" font-weight="normal"> score</tspan><tspan font-style="normal" class="text-inner-tspan" font-weight="normal"> and</tspan></tspan><tspan class="text-outer-tspan row" x="0" y="1em" dy="1.1em"><tspan font-style="normal" class="text-inner-tspan" font-weight="normal">evidence</tspan><tspan font-style="normal" class="text-inner-tspan" font-weight="normal"> in</tspan><tspan font-style="normal" class="text-inner-tspan" font-weight="normal"> transcript</tspan></tspan></text></g></g></g><g class="node default" id="project42-learning-evidence-loop-flowchart-C-11" data-look="classic" transform="translate(1571.9138641357422, 187.25595474243164)"><polygon points="83.578125,0 167.15625,-83.578125 83.578125,-167.15625 0,-83.578125" class="label-container" transform="translate(-83.078125, 83.578125)"/><g class="label" style="" transform="translate(0, -9.5)"><rect/><g><rect class="background" style="stroke: none"/><text y="-10.1" style=""><tspan class="text-outer-tspan row" x="0" y="-0.1em" dy="1.1em"><tspan font-style="normal" class="text-inner-tspan" font-weight="normal">Path</tspan><tspan font-style="normal" class="text-inner-tspan" font-weight="normal"> complete?</tspan></tspan></text></g></g></g><g class="node default" id="project42-learning-evidence-loop-flowchart-B-15" data-look="classic" transform="translate(1839.6269836425781, 187.25595474243164)"><g class="basic label-container outer-path"><path d="M-74.5656247138977 -26.350000381469727 C-31.992110208638202 -26.350000381469727, 10.5814042966213 -26.350000381469727, 74.5656247138977 -26.350000381469727 C74.5656247138977 -26.350000381469727, 74.5656247138977 -26.350000381469727, 74.5656247138977 -26.350000381469727 C75.0965593033164 -26.332974342588553, 75.62749389273509 -26.315948303707383, 76.25387503483034 -26.29586147965732 C76.82530496569792 -26.240736321471562, 77.39673489656552 -26.185611163285806, 77.9351879730657 -26.1336672425804 C78.43797922306608 -26.05237985248472, 78.94077047306646 -25.971092462389034, 79.60265465310009 -25.864084161149677 C80.09027676794912 -25.75278759546706, 80.57789888279817 -25.641491029784444, 81.24942309667476 -25.488220010072133 C81.820118334894 -25.318840659009098, 82.39081357311325 -25.149461307946062, 82.86872637902435 -25.007619295767157 C83.48853426007233 -24.779524266100253, 84.10834214112032 -24.55142923643335, 84.45391043562222 -24.424256909658354 C84.91589198181453 -24.21975138335468, 85.37787352800682 -24.015245857051006, 85.99846140515888 -23.74053001292109 C86.2999160035112 -23.583261342051575, 86.60137060186351 -23.425992671182055, 87.49603239639535 -22.959248186033022 C88.07347143154162 -22.609201249518918, 88.65091046668789 -22.259154313004817, 88.94046956890071 -22.083621883605243 C89.4489276199318 -21.728943558000235, 89.95738567096288 -21.374265232395228, 90.32583742050231 -21.117249241935692 C90.62507822937508 -20.878612659992008, 90.92431903824786 -20.639976078048328, 91.64644317753744 -20.064101293495277 C92.00426663657167 -19.739135495490302, 92.36209009560591 -19.414169697485328, 92.8968601876814 -18.928505649103652 C93.25217751363229 -18.561611337964372, 93.60749483958318 -18.194717026825096, 94.07195021922591 -17.71512871484814 C94.29342292379941 -17.454974273902213, 94.51489562837291 -17.194819832956284, 95.16688457517533 -16.428956516820115 C95.48781231621003 -15.998942580952292, 95.80874005724472 -15.568928645084469, 96.17716393539837 -15.075274212464363 C96.48977558490928 -14.59501877083389, 96.80238723442018 -14.11476332920342, 97.09863684529965 -13.659644372733409 C97.3398784947183 -13.23129539582465, 97.58112014413697 -12.802946418915893, 97.92751677503705 -12.187884124290365 C98.15435018366165 -11.716859697823958, 98.38118359228623 -11.245835271357551, 98.6603976791851 -10.666041245687675 C98.8915793162235 -10.095018132609924, 99.12276095326192 -9.523995019532174, 99.29426799290619 -9.100369315747782 C99.50139762839792 -8.476527855272348, 99.70852726388968 -7.852686394796913, 99.82652300711648 -7.497302016266373 C99.97769748420285 -6.920808215703181, 100.12887196128924 -6.34431441513999, 100.25497557179423 -5.863426694633887 C100.36487292773204 -5.299126998707712, 100.47477028366983 -4.734827302781538, 100.57786508344843 -4.2054572950120805 C100.62966519671707 -3.803705845589818, 100.68146530998571 -3.4019543961675556, 100.79386471981607 -2.5302067692972967 C100.82084585094341 -2.109953873211885, 100.84782698207076 -1.6897009771264737, 100.90208689205957 -0.8445590812398202 C100.90208689205957 -0.3641500026982022, 100.90208689205957 0.11625907584341577, 100.90208689205957 0.8445590812398137 C100.86369721020213 1.4425093637627842, 100.8253075283447 2.0404596462857545, 100.79386471981607 2.5302067692972785 C100.74297685145453 2.9248830273631685, 100.69208898309299 3.319559285429058, 100.57786508344843 4.205457295012063 C100.48510213397658 4.681775435093693, 100.39233918450473 5.158093575175323, 100.25497557179423 5.8634266946338816 C100.14108567360022 6.297738236641803, 100.0271957754062 6.732049778649724, 99.82652300711648 7.497302016266356 C99.66407220516638 7.9865779487197495, 99.50162140321628 8.475853881173142, 99.29426799290619 9.100369315747765 C99.15653571560014 9.440570703566113, 99.0188034382941 9.780772091384463, 98.6603976791851 10.666041245687667 C98.40559454607069 11.195145403513402, 98.15079141295628 11.724249561339137, 97.92751677503705 12.187884124290358 C97.71094487364383 12.572429465497088, 97.4943729722506 12.956974806703817, 97.09863684529965 13.659644372733403 C96.90300097596074 13.96019360362458, 96.70736510662181 14.260742834515757, 96.17716393539838 15.075274212464347 C95.81660155496986 15.55839495432995, 95.45603917454136 16.041515696195553, 95.16688457517533 16.428956516820108 C94.74107053402876 16.92914191905621, 94.31525649288218 17.42932732129231, 94.07195021922593 17.715128714848124 C93.6275832972895 18.173974044950263, 93.18321637535308 18.6328193750524, 92.89686018768141 18.928505649103645 C92.4647375643417 19.320947982282682, 92.032614941002 19.71339031546172, 91.64644317753746 20.06410129349526 C91.27019250704777 20.364151190759955, 90.89394183655807 20.664201088024647, 90.32583742050231 21.11724924193569 C89.87356854645074 21.43273243007005, 89.42129967239919 21.748215618204412, 88.94046956890072 22.083621883605232 C88.43587892954851 22.389507694484287, 87.93128829019629 22.695393505363338, 87.49603239639535 22.95924818603302 C87.13310817881823 23.148585517878946, 86.77018396124112 23.337922849724873, 85.99846140515888 23.740530012921088 C85.55725588653405 23.935838608119603, 85.11605036790921 24.131147203318122, 84.45391043562222 24.424256909658354 C84.05971328416908 24.56932510531163, 83.66551613271594 24.71439330096491, 82.86872637902437 25.00761929576715 C82.53542041737927 25.106542755624723, 82.20211445573416 25.205466215482293, 81.24942309667479 25.488220010072126 C80.8553549017157 25.578163504036244, 80.46128670675661 25.66810699800036, 79.6026546531001 25.864084161149673 C78.99839727776434 25.961775807508026, 78.39413990242858 26.059467453866382, 77.93518797306572 26.133667242580398 C77.28826585201558 26.196075041560423, 76.64134373096545 26.25848284054045, 76.25387503483034 26.29586147965732 C75.64186308392281 26.315487511713926, 75.02985113301528 26.335113543770536, 74.5656247138977 26.350000381469727 C74.5656247138977 26.350000381469727, 74.5656247138977 26.350000381469727, 74.5656247138977 26.350000381469727 C41.725280133841686 26.350000381469727, 8.884935553785667 26.350000381469727, -74.5656247138977 26.350000381469727 C-75.06152632318049 26.334097782073954, -75.55742793246327 26.31819518267818, -76.25387503483033 26.29586147965732 C-76.74629538279973 26.248358280910825, -77.23871573076913 26.200855082164328, -77.93518797306571 26.133667242580398 C-78.32943114148932 26.0699290645111, -78.72367430991295 26.006190886441804, -79.60265465310009 25.864084161149673 C-80.14055019789174 25.741313013147444, -80.6784457426834 25.618541865145218, -81.24942309667476 25.488220010072133 C-81.81602936379292 25.32005424416845, -82.38263563091108 25.15188847826477, -82.86872637902434 25.00761929576716 C-83.42975140555686 24.801156899944697, -83.99077643208939 24.594694504122234, -84.45391043562222 24.424256909658354 C-84.88543960127895 24.233231748880005, -85.31696876693567 24.042206588101653, -85.99846140515886 23.740530012921095 C-86.58593853728253 23.434043569389242, -87.1734156694062 23.127557125857393, -87.49603239639535 22.959248186033026 C-88.05599725773216 22.61979419637186, -88.61596211906897 22.280340206710694, -88.9404695689007 22.08362188360525 C-89.22475832654133 21.88531435293711, -89.50904708418196 21.687006822268977, -90.3258374205023 21.117249241935696 C-90.63313950554875 20.872184006763067, -90.94044159059521 20.62711877159044, -91.64644317753744 20.06410129349528 C-91.9689871311374 19.771175408881152, -92.29153108473737 19.47824952426702, -92.8968601876814 18.928505649103663 C-93.25881233965256 18.5547603353691, -93.62076449162373 18.181015021634536, -94.07195021922591 17.715128714848134 C-94.40237528288556 17.326992633354756, -94.73280034654522 16.93885655186138, -95.16688457517533 16.42895651682012 C-95.41682664614223 16.094056911915562, -95.66676871710914 15.759157307011003, -96.17716393539837 15.075274212464365 C-96.48040274566497 14.609417968872886, -96.78364155593158 14.143561725281408, -97.09863684529964 13.659644372733421 C-97.27870018224377 13.339923684599102, -97.45876351918788 13.020202996464782, -97.92751677503705 12.187884124290367 C-98.20733362104004 11.606838456443793, -98.48715046704301 11.02579278859722, -98.6603976791851 10.666041245687678 C-98.79425333853358 10.335415179173816, -98.92810899788205 10.004789112659957, -99.29426799290619 9.100369315747784 C-99.43133392402675 8.687548569703033, -99.56839985514732 8.274727823658282, -99.82652300711648 7.4973020162663655 C-99.95994433759512 6.988508657980907, -100.09336566807374 6.479715299695447, -100.25497557179423 5.86342669463389 C-100.35644003310277 5.342428130336075, -100.4579044944113 4.82142956603826, -100.57786508344843 4.205457295012083 C-100.64110090726962 3.7150127327807136, -100.70433673109082 3.2245681705493445, -100.79386471981607 2.530206769297312 C-100.82547549580691 2.0378434174809725, -100.85708627179774 1.5454800656646335, -100.90208689205957 0.8445590812398235 C-100.90208689205957 0.4262265769641035, -100.90208689205957 0.007894072688383491, -100.90208689205957 -0.8445590812398106 C-100.87931679454435 -1.199221729731264, -100.85654669702913 -1.5538843782227172, -100.79386471981607 -2.5302067692972754 C-100.74464926187457 -2.911912142400148, -100.69543380393307 -3.293617515503021, -100.57786508344843 -4.205457295012071 C-100.48734557187946 -4.670255855613203, -100.39682606031047 -5.135054416214335, -100.25497557179423 -5.863426694633878 C-100.10796880312306 -6.424027216713673, -99.96096203445187 -6.984627738793469, -99.82652300711648 -7.497302016266352 C-99.71241619220646 -7.84097356232331, -99.59830937729645 -8.184645108380268, -99.29426799290619 -9.10036931574775 C-99.1341595141826 -9.495840353681858, -98.97405103545901 -9.891311391615965, -98.6603976791851 -10.666041245687664 C-98.47305978601945 -11.055052389234916, -98.2857218928538 -11.44406353278217, -97.92751677503705 -12.187884124290356 C-97.73231862972658 -12.534478197244672, -97.53712048441609 -12.88107227019899, -97.09863684529965 -13.659644372733412 C-96.75879061741308 -14.181739440257182, -96.41894438952652 -14.703834507780952, -96.17716393539838 -15.075274212464356 C-95.92522086538712 -15.412854973793598, -95.67327779537585 -15.750435735122839, -95.16688457517535 -16.428956516820108 C-94.87046329135175 -16.777149823648166, -94.57404200752816 -17.12534313047622, -94.07195021922593 -17.715128714848124 C-93.82552938382882 -17.96957845892247, -93.57910854843172 -18.22402820299682, -92.89686018768143 -18.928505649103638 C-92.52573753059328 -19.265549426903668, -92.15461487350514 -19.6025932047037, -91.64644317753746 -20.064101293495256 C-91.29420501331902 -20.345001856008253, -90.94196684910058 -20.62590241852125, -90.32583742050231 -21.117249241935685 C-89.94691931644083 -21.381566108228625, -89.56800121237933 -21.64588297452157, -88.94046956890072 -22.083621883605232 C-88.46588783830137 -22.37131611764638, -87.99130610770202 -22.65901035168753, -87.49603239639536 -22.959248186033015 C-87.08895450445323 -23.171620461513392, -86.68187661251109 -23.383992736993772, -85.99846140515888 -23.740530012921088 C-85.50962277924499 -23.956924371730544, -85.02078415333112 -24.17331873054, -84.45391043562223 -24.42425690965835 C-84.10203731678381 -24.553749470070343, -83.75016419794538 -24.68324203048234, -82.86872637902438 -25.00761929576715 C-82.52554283289852 -25.10947437085011, -82.18235928677267 -25.21132944593307, -81.2494230966748 -25.488220010072123 C-80.82625522054342 -25.58480531637065, -80.40308734441201 -25.681390622669184, -79.6026546531001 -25.864084161149673 C-79.05345603925302 -25.952874333937608, -78.50425742540595 -26.041664506725542, -77.93518797306572 -26.133667242580398 C-77.479551503601 -26.17762194480663, -77.02391503413628 -26.22157664703287, -76.25387503483034 -26.29586147965732 C-75.85417903992496 -26.308678952252876, -75.45448304501959 -26.321496424848434, -74.56562471389772 -26.350000381469727 C-74.56562471389772 -26.350000381469727, -74.5656247138977 -26.350000381469727, -74.5656247138977 -26.350000381469727" stroke="none" stroke-width="0" fill="#f6f3eb" style=""/><path d="M-74.5656247138977 -26.350000381469727 C-34.14790561928281 -26.350000381469727, 6.269813475332086 -26.350000381469727, 74.5656247138977 -26.350000381469727 M-74.5656247138977 -26.350000381469727 C-16.452852141417175 -26.350000381469727, 41.659920431063355 -26.350000381469727, 74.5656247138977 -26.350000381469727 M74.5656247138977 -26.350000381469727 C74.5656247138977 -26.350000381469727, 74.5656247138977 -26.350000381469727, 74.5656247138977 -26.350000381469727 M74.5656247138977 -26.350000381469727 C74.5656247138977 -26.350000381469727, 74.5656247138977 -26.350000381469727, 74.5656247138977 -26.350000381469727 M74.5656247138977 -26.350000381469727 C74.9039005041461 -26.339152535290342, 75.24217629439448 -26.328304689110958, 76.25387503483034 -26.29586147965732 M74.5656247138977 -26.350000381469727 C75.15143689330361 -26.331214525090413, 75.7372490727095 -26.312428668711103, 76.25387503483034 -26.29586147965732 M76.25387503483034 -26.29586147965732 C76.81916469068199 -26.241328666417587, 77.38445434653363 -26.18679585317786, 77.9351879730657 -26.1336672425804 M76.25387503483034 -26.29586147965732 C76.69441491472043 -26.253363127271044, 77.13495479461051 -26.21086477488477, 77.9351879730657 -26.1336672425804 M77.9351879730657 -26.1336672425804 C78.42309724782336 -26.05478585483052, 78.91100652258103 -25.975904467080635, 79.60265465310009 -25.864084161149677 M77.9351879730657 -26.1336672425804 C78.29861023960142 -26.074911948908674, 78.66203250613714 -26.01615665523695, 79.60265465310009 -25.864084161149677 M79.60265465310009 -25.864084161149677 C80.2101398599865 -25.725429626889305, 80.81762506687289 -25.586775092628933, 81.24942309667476 -25.488220010072133 M79.60265465310009 -25.864084161149677 C80.0275237257676 -25.767110567843126, 80.45239279843508 -25.670136974536575, 81.24942309667476 -25.488220010072133 M81.24942309667476 -25.488220010072133 C81.61194245366018 -25.3806261678218, 81.9744618106456 -25.273032325571464, 82.86872637902435 -25.007619295767157 M81.24942309667476 -25.488220010072133 C81.63827831341631 -25.37280982288593, 82.02713353015784 -25.257399635699727, 82.86872637902435 -25.007619295767157 M82.86872637902435 -25.007619295767157 C83.4298067937887 -24.801136516563375, 83.99088720855306 -24.594653737359597, 84.45391043562222 -24.424256909658354 M82.86872637902435 -25.007619295767157 C83.19554184180483 -24.887348184414922, 83.5223573045853 -24.767077073062683, 84.45391043562222 -24.424256909658354 M84.45391043562222 -24.424256909658354 C84.79209050767781 -24.274554623514753, 85.1302705797334 -24.124852337371152, 85.99846140515888 -23.74053001292109 M84.45391043562222 -24.424256909658354 C84.95688041218318 -24.201607021109062, 85.45985038874414 -23.97895713255977, 85.99846140515888 -23.74053001292109 M85.99846140515888 -23.74053001292109 C86.43780229242722 -23.511326153444468, 86.87714317969557 -23.28212229396784, 87.49603239639535 -22.959248186033022 M85.99846140515888 -23.74053001292109 C86.32425800924472 -23.570562133252196, 86.65005461333055 -23.4005942535833, 87.49603239639535 -22.959248186033022 M87.49603239639535 -22.959248186033022 C87.86875354917898 -22.733302432862967, 88.2414747019626 -22.50735667969291, 88.94046956890071 -22.083621883605243 M87.49603239639535 -22.959248186033022 C87.96999325649026 -22.67193032734031, 88.44395411658518 -22.3846124686476, 88.94046956890071 -22.083621883605243 M88.94046956890071 -22.083621883605243 C89.24313466049607 -21.872495817868963, 89.54579975209144 -21.661369752132682, 90.32583742050231 -21.117249241935692 M88.94046956890071 -22.083621883605243 C89.22038629172803 -21.888364095160536, 89.50030301455536 -21.693106306715826, 90.32583742050231 -21.117249241935692 M90.32583742050231 -21.117249241935692 C90.64725238355904 -20.860929362109335, 90.96866734661575 -20.60460948228298, 91.64644317753744 -20.064101293495277 M90.32583742050231 -21.117249241935692 C90.59218595405362 -20.904843374260675, 90.85853448760491 -20.69243750658566, 91.64644317753744 -20.064101293495277 M91.64644317753744 -20.064101293495277 C91.91994689376659 -19.81571245492774, 92.19345060999574 -19.567323616360206, 92.8968601876814 -18.928505649103652 M91.64644317753744 -20.064101293495277 C91.99512961523382 -19.747433496516997, 92.34381605293022 -19.430765699538718, 92.8968601876814 -18.928505649103652 M92.8968601876814 -18.928505649103652 C93.26410313400558 -18.549297155817307, 93.63134608032976 -18.170088662530965, 94.07195021922591 -17.71512871484814 M92.8968601876814 -18.928505649103652 C93.15987361657973 -18.656922689962027, 93.42288704547805 -18.385339730820405, 94.07195021922591 -17.71512871484814 M94.07195021922591 -17.71512871484814 C94.34363209239493 -17.395995727487293, 94.61531396556394 -17.076862740126444, 95.16688457517533 -16.428956516820115 M94.07195021922591 -17.71512871484814 C94.43674445973464 -17.286620642566277, 94.80153870024337 -16.85811257028441, 95.16688457517533 -16.428956516820115 M95.16688457517533 -16.428956516820115 C95.54985061322988 -15.915816914750824, 95.93281665128443 -15.402677312681531, 96.17716393539837 -15.075274212464363 M95.16688457517533 -16.428956516820115 C95.38417558942855 -16.137806353339432, 95.60146660368177 -15.846656189858749, 96.17716393539837 -15.075274212464363 M96.17716393539837 -15.075274212464363 C96.42807667037407 -14.689804872038325, 96.67898940534977 -14.304335531612287, 97.09863684529965 -13.659644372733409 M96.17716393539837 -15.075274212464363 C96.53702235829516 -14.522435039378088, 96.89688078119197 -13.969595866291815, 97.09863684529965 -13.659644372733409 M97.09863684529965 -13.659644372733409 C97.29218733234943 -13.315975883864455, 97.4857378193992 -12.9723073949955, 97.92751677503705 -12.187884124290365 M97.09863684529965 -13.659644372733409 C97.37162710031173 -13.174922531698622, 97.64461735532379 -12.690200690663836, 97.92751677503705 -12.187884124290365 M97.92751677503705 -12.187884124290365 C98.11273281374793 -11.80327905691887, 98.29794885245879 -11.418673989547374, 98.6603976791851 -10.666041245687675 M97.92751677503705 -12.187884124290365 C98.08293076465948 -11.865163649512711, 98.23834475428191 -11.542443174735055, 98.6603976791851 -10.666041245687675 M98.6603976791851 -10.666041245687675 C98.8092539282477 -10.298363432563239, 98.95811017731032 -9.930685619438805, 99.29426799290619 -9.100369315747782 M98.6603976791851 -10.666041245687675 C98.85885617823654 -10.175844916096551, 99.05731467728799 -9.685648586505426, 99.29426799290619 -9.100369315747782 M99.29426799290619 -9.100369315747782 C99.45251586804451 -8.623751929205989, 99.61076374318284 -8.147134542664197, 99.82652300711648 -7.497302016266373 M99.29426799290619 -9.100369315747782 C99.47028612045584 -8.570230760248302, 99.64630424800549 -8.04009220474882, 99.82652300711648 -7.497302016266373 M99.82652300711648 -7.497302016266373 C99.91246072014279 -7.1695842708566255, 99.99839843316909 -6.8418665254468785, 100.25497557179423 -5.863426694633887 M99.82652300711648 -7.497302016266373 C99.98664750419368 -6.886677910514936, 100.14677200127089 -6.2760538047635, 100.25497557179423 -5.863426694633887 M100.25497557179423 -5.863426694633887 C100.37836057001365 -5.22987080620578, 100.50174556823308 -4.596314917777674, 100.57786508344843 -4.2054572950120805 M100.25497557179423 -5.863426694633887 C100.35951529212132 -5.3266373252320305, 100.4640550124484 -4.789847955830173, 100.57786508344843 -4.2054572950120805 M100.57786508344843 -4.2054572950120805 C100.6230393015683 -3.8550949799327556, 100.66821351968817 -3.5047326648534307, 100.79386471981607 -2.5302067692972967 M100.57786508344843 -4.2054572950120805 C100.65318756428225 -3.6212710077711328, 100.72851004511608 -3.037084720530185, 100.79386471981607 -2.5302067692972967 M100.79386471981607 -2.5302067692972967 C100.82915762091075 -1.9804913468308363, 100.86445052200541 -1.430775924364376, 100.90208689205957 -0.8445590812398202 M100.79386471981607 -2.5302067692972967 C100.8306426408384 -1.957360962770911, 100.86742056186075 -1.3845151562445255, 100.90208689205957 -0.8445590812398202 M100.90208689205957 -0.8445590812398202 C100.90208689205957 -0.4508427776187948, 100.90208689205957 -0.05712647399776949, 100.90208689205957 0.8445590812398137 M100.90208689205957 -0.8445590812398202 C100.90208689205957 -0.2641888652789338, 100.90208689205957 0.3161813506819525, 100.90208689205957 0.8445590812398137 M100.90208689205957 0.8445590812398137 C100.88004418081269 1.187892101466152, 100.85800146956582 1.5312251216924904, 100.79386471981607 2.5302067692972785 M100.90208689205957 0.8445590812398137 C100.87873818771949 1.2082339980715175, 100.8553894833794 1.5719089149032215, 100.79386471981607 2.5302067692972785 M100.79386471981607 2.5302067692972785 C100.73235095540716 3.007295378786065, 100.67083719099826 3.4843839882748506, 100.57786508344843 4.205457295012063 M100.79386471981607 2.5302067692972785 C100.71052916715817 3.1765408592457827, 100.62719361450026 3.8228749491942873, 100.57786508344843 4.205457295012063 M100.57786508344843 4.205457295012063 C100.49578132977369 4.626940021724353, 100.41369757609895 5.048422748436645, 100.25497557179423 5.8634266946338816 M100.57786508344843 4.205457295012063 C100.51075680355015 4.550044128949748, 100.44364852365187 4.894630962887433, 100.25497557179423 5.8634266946338816 M100.25497557179423 5.8634266946338816 C100.15689794327025 6.237439199308939, 100.05882031474626 6.611451703983997, 99.82652300711648 7.497302016266356 M100.25497557179423 5.8634266946338816 C100.16547749105233 6.2047216652163115, 100.07597941031044 6.546016635798742, 99.82652300711648 7.497302016266356 M99.82652300711648 7.497302016266356 C99.7006401986417 7.876440978690622, 99.57475739016691 8.25557994111489, 99.29426799290619 9.100369315747765 M99.82652300711648 7.497302016266356 C99.63994158567534 8.059255529934646, 99.45336016423421 8.621209043602935, 99.29426799290619 9.100369315747765 M99.29426799290619 9.100369315747765 C99.06397304767168 9.669202282926841, 98.83367810243719 10.23803525010592, 98.6603976791851 10.666041245687667 M99.29426799290619 9.100369315747765 C99.04163876281521 9.724368398326375, 98.78900953272422 10.348367480904983, 98.6603976791851 10.666041245687667 M98.6603976791851 10.666041245687667 C98.46670328279392 11.068251804190107, 98.27300888640275 11.470462362692544, 97.92751677503705 12.187884124290358 M98.6603976791851 10.666041245687667 C98.41394291810673 11.177809830354025, 98.16748815702836 11.689578415020385, 97.92751677503705 12.187884124290358 M97.92751677503705 12.187884124290358 C97.6958604751132 12.599213342549211, 97.46420417518932 13.010542560808062, 97.09863684529965 13.659644372733403 M97.92751677503705 12.187884124290358 C97.64762391166154 12.684862245439309, 97.36773104828605 13.181840366588261, 97.09863684529965 13.659644372733403 M97.09863684529965 13.659644372733403 C96.85089455849997 14.040243053376521, 96.60315227170031 14.420841734019639, 96.17716393539838 15.075274212464347 M97.09863684529965 13.659644372733403 C96.73988087854582 14.210789877133172, 96.38112491179197 14.761935381532938, 96.17716393539838 15.075274212464347 M96.17716393539838 15.075274212464347 C95.94179599903676 15.390645804728807, 95.70642806267513 15.706017396993266, 95.16688457517533 16.428956516820108 M96.17716393539838 15.075274212464347 C95.78766141536379 15.59717210490115, 95.39815889532919 16.119069997337952, 95.16688457517533 16.428956516820108 M95.16688457517533 16.428956516820108 C94.75366580105367 16.914346801717755, 94.340447026932 17.3997370866154, 94.07195021922593 17.715128714848124 M95.16688457517533 16.428956516820108 C94.91834312031241 16.72090745211151, 94.6698016654495 17.01285838740291, 94.07195021922593 17.715128714848124 M94.07195021922593 17.715128714848124 C93.81976966190174 17.97552584469415, 93.56758910457755 18.23592297454018, 92.89686018768141 18.928505649103645 M94.07195021922593 17.715128714848124 C93.78012050393933 18.016466855546746, 93.48829078865273 18.31780499624537, 92.89686018768141 18.928505649103645 M92.89686018768141 18.928505649103645 C92.60456177973576 19.19396332940781, 92.31226337179011 19.45942100971198, 91.64644317753746 20.06410129349526 M92.89686018768141 18.928505649103645 C92.56448388979626 19.230361008648007, 92.23210759191112 19.532216368192366, 91.64644317753746 20.06410129349526 M91.64644317753746 20.06410129349526 C91.32972766969804 20.31667348284357, 91.01301216185863 20.569245672191876, 90.32583742050231 21.11724924193569 M91.64644317753746 20.06410129349526 C91.37403125471174 20.281342552763057, 91.10161933188603 20.498583812030855, 90.32583742050231 21.11724924193569 M90.32583742050231 21.11724924193569 C89.82222462335977 21.4685477281757, 89.31861182621725 21.819846214415715, 88.94046956890072 22.083621883605232 M90.32583742050231 21.11724924193569 C89.8182123745505 21.47134649925761, 89.31058732859867 21.825443756579528, 88.94046956890072 22.083621883605232 M88.94046956890072 22.083621883605232 C88.52039384292435 22.338274257331094, 88.10031811694797 22.59292663105695, 87.49603239639535 22.95924818603302 M88.94046956890072 22.083621883605232 C88.55735739789537 22.3158667330857, 88.17424522689001 22.548111582566168, 87.49603239639535 22.95924818603302 M87.49603239639535 22.95924818603302 C86.9153205268133 23.262205196430266, 86.33460865723126 23.565162206827516, 85.99846140515888 23.740530012921088 M87.49603239639535 22.95924818603302 C87.01944330497437 23.20788440975746, 86.5428542135534 23.456520633481905, 85.99846140515888 23.740530012921088 M85.99846140515888 23.740530012921088 C85.66759013849948 23.886996907723802, 85.33671887184008 24.03346380252652, 84.45391043562222 24.424256909658354 M85.99846140515888 23.740530012921088 C85.38898017198035 24.01032927523081, 84.77949893880184 24.280128537540527, 84.45391043562222 24.424256909658354 M84.45391043562222 24.424256909658354 C83.83980476266306 24.65025347403793, 83.22569908970392 24.87625003841751, 82.86872637902437 25.00761929576715 M84.45391043562222 24.424256909658354 C84.01310346742477 24.58647794872996, 83.5722964992273 24.74869898780157, 82.86872637902437 25.00761929576715 M82.86872637902437 25.00761929576715 C82.43870151039937 25.135248419528452, 82.00867664177437 25.262877543289754, 81.24942309667479 25.488220010072126 M82.86872637902437 25.00761929576715 C82.51998285372835 25.111124543482887, 82.17123932843234 25.214629791198625, 81.24942309667479 25.488220010072126 M81.24942309667479 25.488220010072126 C80.74566023587393 25.603200595690037, 80.24189737507307 25.718181181307948, 79.6026546531001 25.864084161149673 M81.24942309667479 25.488220010072126 C80.73858138062498 25.60481629820676, 80.22773966457517 25.721412586341398, 79.6026546531001 25.864084161149673 M79.6026546531001 25.864084161149673 C79.08992647960196 25.946978075974485, 78.5771983061038 26.029871990799293, 77.93518797306572 26.133667242580398 M79.6026546531001 25.864084161149673 C79.1996634987537 25.929236645741323, 78.7966723444073 25.994389130332973, 77.93518797306572 26.133667242580398 M77.93518797306572 26.133667242580398 C77.4729475689544 26.178259018439597, 77.01070716484307 26.222850794298797, 76.25387503483034 26.29586147965732 M77.93518797306572 26.133667242580398 C77.52266691403057 26.17346265301636, 77.1101458549954 26.213258063452322, 76.25387503483034 26.29586147965732 M76.25387503483034 26.29586147965732 C75.87371656561245 26.308052421831565, 75.49355809639457 26.32024336400581, 74.5656247138977 26.350000381469727 M76.25387503483034 26.29586147965732 C75.80410430038175 26.310284751685458, 75.35433356593315 26.3247080237136, 74.5656247138977 26.350000381469727 M74.5656247138977 26.350000381469727 C74.5656247138977 26.350000381469727, 74.5656247138977 26.350000381469727, 74.5656247138977 26.350000381469727 M74.5656247138977 26.350000381469727 C74.5656247138977 26.350000381469727, 74.5656247138977 26.350000381469727, 74.5656247138977 26.350000381469727 M74.5656247138977 26.350000381469727 C27.68275315025064 26.350000381469727, -19.200118413396424 26.350000381469727, -74.5656247138977 26.350000381469727 M74.5656247138977 26.350000381469727 C21.899488899339104 26.350000381469727, -30.766646915219496 26.350000381469727, -74.5656247138977 26.350000381469727 M-74.5656247138977 26.350000381469727 C-75.22341784574415 26.32890623604807, -75.8812109775906 26.307812090626413, -76.25387503483033 26.29586147965732 M-74.5656247138977 26.350000381469727 C-75.11061419501638 26.332523629567923, -75.65560367613507 26.31504687766612, -76.25387503483033 26.29586147965732 M-76.25387503483033 26.29586147965732 C-76.68537449951934 26.2542352452528, -77.11687396420835 26.212609010848283, -77.93518797306571 26.133667242580398 M-76.25387503483033 26.29586147965732 C-76.61812809419256 26.26072242509904, -76.98238115355478 26.225583370540765, -77.93518797306571 26.133667242580398 M-77.93518797306571 26.133667242580398 C-78.39761209591516 26.05890609655073, -78.8600362187646 25.984144950521063, -79.60265465310009 25.864084161149673 M-77.93518797306571 26.133667242580398 C-78.37193128573087 26.063057970783667, -78.80867459839604 25.99244869898694, -79.60265465310009 25.864084161149673 M-79.60265465310009 25.864084161149673 C-80.2350819461627 25.719736758481908, -80.8675092392253 25.575389355814142, -81.24942309667476 25.488220010072133 M-79.60265465310009 25.864084161149673 C-80.10566581421071 25.749275146080763, -80.60867697532133 25.634466131011852, -81.24942309667476 25.488220010072133 M-81.24942309667476 25.488220010072133 C-81.57872188469297 25.39048585831294, -81.90802067271119 25.292751706553744, -82.86872637902434 25.00761929576716 M-81.24942309667476 25.488220010072133 C-81.68793913818656 25.3580707507691, -82.12645517969838 25.22792149146607, -82.86872637902434 25.00761929576716 M-82.86872637902434 25.00761929576716 C-83.27082231883541 24.85964427298256, -83.6729182586465 24.71166925019796, -84.45391043562222 24.424256909658354 M-82.86872637902434 25.00761929576716 C-83.37344759242862 24.821877223642634, -83.8781688058329 24.636135151518108, -84.45391043562222 24.424256909658354 M-84.45391043562222 24.424256909658354 C-84.88243967557294 24.23455972700042, -85.31096891552366 24.04486254434249, -85.99846140515886 23.740530012921095 M-84.45391043562222 24.424256909658354 C-84.90147893992038 24.226131609453518, -85.34904744421856 24.028006309248678, -85.99846140515886 23.740530012921095 M-85.99846140515886 23.740530012921095 C-86.31053703411862 23.577720357186767, -86.6226126630784 23.41491070145244, -87.49603239639535 22.959248186033026 M-85.99846140515886 23.740530012921095 C-86.5569992580738 23.44914117281594, -87.11553711098875 23.157752332710785, -87.49603239639535 22.959248186033026 M-87.49603239639535 22.959248186033026 C-87.80018328780058 22.774870128274145, -88.1043341792058 22.59049207051526, -88.9404695689007 22.08362188360525 M-87.49603239639535 22.959248186033026 C-87.99751292157477 22.655247744642576, -88.4989934467542 22.35124730325213, -88.9404695689007 22.08362188360525 M-88.9404695689007 22.08362188360525 C-89.46329711612456 21.71892001950162, -89.98612466334843 21.35421815539799, -90.3258374205023 21.117249241935696 M-88.9404695689007 22.08362188360525 C-89.43729771678566 21.737056074984583, -89.93412586467063 21.390490266363912, -90.3258374205023 21.117249241935696 M-90.3258374205023 21.117249241935696 C-90.80444348990736 20.73557363782756, -91.28304955931242 20.35389803371942, -91.64644317753744 20.06410129349528 M-90.3258374205023 21.117249241935696 C-90.82003557433697 20.723139365417733, -91.31423372817164 20.32902948889977, -91.64644317753744 20.06410129349528 M-91.64644317753744 20.06410129349528 C-91.93856367360067 19.79880518805544, -92.23068416966389 19.533509082615602, -92.8968601876814 18.928505649103663 M-91.64644317753744 20.06410129349528 C-92.01971525327511 19.725105470548247, -92.39298732901278 19.386109647601213, -92.8968601876814 18.928505649103663 M-92.8968601876814 18.928505649103663 C-93.22078172509035 18.5940300672761, -93.54470326249931 18.259554485448543, -94.07195021922591 17.715128714848134 M-92.8968601876814 18.928505649103663 C-93.32376514714932 18.487691228904033, -93.75067010661724 18.0468768087044, -94.07195021922591 17.715128714848134 M-94.07195021922591 17.715128714848134 C-94.4248457037205 17.300597598438877, -94.77774118821509 16.88606648202962, -95.16688457517533 16.42895651682012 M-94.07195021922591 17.715128714848134 C-94.35035605016212 17.388097384089903, -94.62876188109834 17.061066053331672, -95.16688457517533 16.42895651682012 M-95.16688457517533 16.42895651682012 C-95.40872865943548 16.10490747636084, -95.65057274369563 15.780858435901559, -96.17716393539837 15.075274212464365 M-95.16688457517533 16.42895651682012 C-95.38574055342544 16.13570944415477, -95.60459653167553 15.842462371489418, -96.17716393539837 15.075274212464365 M-96.17716393539837 15.075274212464365 C-96.5447172591267 14.510613605330661, -96.91227058285503 13.945952998196958, -97.09863684529964 13.659644372733421 M-96.17716393539837 15.075274212464365 C-96.38760069330927 14.751986842131545, -96.59803745122018 14.428699471798728, -97.09863684529964 13.659644372733421 M-97.09863684529964 13.659644372733421 C-97.2771754314751 13.342631033986608, -97.45571401765058 13.025617695239797, -97.92751677503705 12.187884124290367 M-97.09863684529964 13.659644372733421 C-97.3433088164459 13.225204512239584, -97.58798078759214 12.790764651745748, -97.92751677503705 12.187884124290367 M-97.92751677503705 12.187884124290367 C-98.1549713432425 11.715569846663639, -98.38242591144794 11.243255569036911, -98.6603976791851 10.666041245687678 M-97.92751677503705 12.187884124290367 C-98.12925945354165 11.768961135773761, -98.33100213204624 11.350038147257155, -98.6603976791851 10.666041245687678 M-98.6603976791851 10.666041245687678 C-98.80800344648937 10.301452146682754, -98.95560921379364 9.93686304767783, -99.29426799290619 9.100369315747784 M-98.6603976791851 10.666041245687678 C-98.91240375221373 10.043581373100986, -99.16440982524236 9.421121500514294, -99.29426799290619 9.100369315747784 M-99.29426799290619 9.100369315747784 C-99.42964569011912 8.692633261249291, -99.56502338733205 8.284897206750799, -99.82652300711648 7.4973020162663655 M-99.29426799290619 9.100369315747784 C-99.43793215528216 8.667675748447152, -99.58159631765811 8.23498218114652, -99.82652300711648 7.4973020162663655 M-99.82652300711648 7.4973020162663655 C-99.91965910172273 7.1421337220939805, -100.01279519632898 6.786965427921595, -100.25497557179423 5.86342669463389 M-99.82652300711648 7.4973020162663655 C-99.9720970420094 6.942165129033839, -100.11767107690231 6.387028241801311, -100.25497557179423 5.86342669463389 M-100.25497557179423 5.86342669463389 C-100.3653968507624 5.296436764677974, -100.47581812973056 4.729446834722059, -100.57786508344843 4.205457295012083 M-100.25497557179423 5.86342669463389 C-100.37154976449493 5.264842853080181, -100.48812395719563 4.666259011526472, -100.57786508344843 4.205457295012083 M-100.57786508344843 4.205457295012083 C-100.64222746097442 3.7062754047095106, -100.7065898385004 3.207093514406938, -100.79386471981607 2.530206769297312 M-100.57786508344843 4.205457295012083 C-100.663659758878 3.540050734455307, -100.74945443430757 2.8746441738985307, -100.79386471981607 2.530206769297312 M-100.79386471981607 2.530206769297312 C-100.83386546598989 1.9071628596190955, -100.87386621216369 1.2841189499408794, -100.90208689205957 0.8445590812398235 M-100.79386471981607 2.530206769297312 C-100.82823792223894 1.994816396011455, -100.86261112466183 1.4594260227255984, -100.90208689205957 0.8445590812398235 M-100.90208689205957 0.8445590812398235 C-100.90208689205957 0.28518264767948354, -100.90208689205957 -0.2741937858808564, -100.90208689205957 -0.8445590812398106 M-100.90208689205957 0.8445590812398235 C-100.90208689205957 0.26133835863472377, -100.90208689205957 -0.32188236397037595, -100.90208689205957 -0.8445590812398106 M-100.90208689205957 -0.8445590812398106 C-100.87619164802555 -1.2478984093344516, -100.85029640399152 -1.6512377374290925, -100.79386471981607 -2.5302067692972754 M-100.90208689205957 -0.8445590812398106 C-100.8790917302772 -1.20272728736072, -100.85609656849483 -1.5608954934816297, -100.79386471981607 -2.5302067692972754 M-100.79386471981607 -2.5302067692972754 C-100.72565193689562 -3.0592516434907617, -100.65743915397516 -3.5882965176842485, -100.57786508344843 -4.205457295012071 M-100.79386471981607 -2.5302067692972754 C-100.73777300936501 -2.9652429989945928, -100.68168129891396 -3.4002792286919097, -100.57786508344843 -4.205457295012071 M-100.57786508344843 -4.205457295012071 C-100.45605617765884 -4.830920281920238, -100.33424727186926 -5.4563832688284055, -100.25497557179423 -5.863426694633878 M-100.57786508344843 -4.205457295012071 C-100.48695235344114 -4.672274949187169, -100.39603962343386 -5.1390926033622675, -100.25497557179423 -5.863426694633878 M-100.25497557179423 -5.863426694633878 C-100.10434119528612 -6.437860857611079, -99.953706818778 -7.0122950205882795, -99.82652300711648 -7.497302016266352 M-100.25497557179423 -5.863426694633878 C-100.08983144526205 -6.493192823018281, -99.92468731872988 -7.122958951402683, -99.82652300711648 -7.497302016266352 M-99.82652300711648 -7.497302016266352 C-99.70544883000169 -7.861958147185692, -99.5843746528869 -8.22661427810503, -99.29426799290619 -9.10036931574775 M-99.82652300711648 -7.497302016266352 C-99.6342259747945 -8.076470039248823, -99.44192894247252 -8.655638062231295, -99.29426799290619 -9.10036931574775 M-99.29426799290619 -9.10036931574775 C-99.1090616885544 -9.557832468216947, -98.92385538420262 -10.015295620686143, -98.6603976791851 -10.666041245687664 M-99.29426799290619 -9.10036931574775 C-99.11956008616303 -9.53190122315094, -98.94485217941987 -9.96343313055413, -98.6603976791851 -10.666041245687664 M-98.6603976791851 -10.666041245687664 C-98.41362254455069 -11.178475092898028, -98.16684740991629 -11.690908940108393, -97.92751677503705 -12.187884124290356 M-98.6603976791851 -10.666041245687664 C-98.39574698716612 -11.215594070282727, -98.13109629514716 -11.765146894877791, -97.92751677503705 -12.187884124290356 M-97.92751677503705 -12.187884124290356 C-97.74180489770106 -12.517634367867169, -97.55609302036507 -12.847384611443982, -97.09863684529965 -13.659644372733412 M-97.92751677503705 -12.187884124290356 C-97.69459655790243 -12.601457555542403, -97.46167634076782 -13.015030986794452, -97.09863684529965 -13.659644372733412 M-97.09863684529965 -13.659644372733412 C-96.81672518565092 -14.09273638583402, -96.5348135260022 -14.525828398934625, -96.17716393539838 -15.075274212464356 M-97.09863684529965 -13.659644372733412 C-96.82431140309663 -14.081081918652792, -96.54998596089361 -14.502519464572174, -96.17716393539838 -15.075274212464356 M-96.17716393539838 -15.075274212464356 C-95.90654185050315 -15.43788315204485, -95.63591976560792 -15.800492091625346, -95.16688457517535 -16.428956516820108 M-96.17716393539838 -15.075274212464356 C-95.8526833373595 -15.510048653045867, -95.5282027393206 -15.944823093627377, -95.16688457517535 -16.428956516820108 M-95.16688457517535 -16.428956516820108 C-94.76755214710595 -16.898035109489285, -94.36821971903655 -17.367113702158466, -94.07195021922593 -17.715128714848124 M-95.16688457517535 -16.428956516820108 C-94.93550649068821 -16.700746380644667, -94.70412840620108 -16.97253624446923, -94.07195021922593 -17.715128714848124 M-94.07195021922593 -17.715128714848124 C-93.83361396012309 -17.961230470142596, -93.59527770102024 -18.207332225437064, -92.89686018768143 -18.928505649103638 M-94.07195021922593 -17.715128714848124 C-93.65243676243858 -18.148310801676406, -93.23292330565124 -18.58149288850469, -92.89686018768143 -18.928505649103638 M-92.89686018768143 -18.928505649103638 C-92.41618822770386 -19.36503920527213, -91.93551626772629 -19.801572761440617, -91.64644317753746 -20.064101293495256 M-92.89686018768143 -18.928505649103638 C-92.55578137309809 -19.23826440405732, -92.21470255851474 -19.548023159010995, -91.64644317753746 -20.064101293495256 M-91.64644317753746 -20.064101293495256 C-91.21288726364097 -20.4098505974203, -90.77933134974448 -20.75559990134534, -90.32583742050231 -21.117249241935685 M-91.64644317753746 -20.064101293495256 C-91.23657803296749 -20.390957839320247, -90.82671288839752 -20.717814385145235, -90.32583742050231 -21.117249241935685 M-90.32583742050231 -21.117249241935685 C-89.95430030561187 -21.37641744970078, -89.58276319072141 -21.635585657465878, -88.94046956890072 -22.083621883605232 M-90.32583742050231 -21.117249241935685 C-89.82002897615979 -21.47007931661438, -89.31422053181726 -21.822909391293074, -88.94046956890072 -22.083621883605232 M-88.94046956890072 -22.083621883605232 C-88.396491619691 -22.413384513185434, -87.85251367048129 -22.743147142765633, -87.49603239639536 -22.959248186033015 M-88.94046956890072 -22.083621883605232 C-88.64201480715518 -22.264546914090243, -88.34356004540965 -22.44547194457525, -87.49603239639536 -22.959248186033015 M-87.49603239639536 -22.959248186033015 C-86.90423665787971 -23.267987643753372, -86.31244091936404 -23.576727101473733, -85.99846140515888 -23.740530012921088 M-87.49603239639536 -22.959248186033015 C-87.17477965605072 -23.126845534898617, -86.85352691570607 -23.29444288376422, -85.99846140515888 -23.740530012921088 M-85.99846140515888 -23.740530012921088 C-85.58937017602253 -23.921622564799605, -85.18027894688618 -24.102715116678127, -84.45391043562223 -24.42425690965835 M-85.99846140515888 -23.740530012921088 C-85.66806747523661 -23.886785604909967, -85.33767354531436 -24.033041196898843, -84.45391043562223 -24.42425690965835 M-84.45391043562223 -24.42425690965835 C-83.98079821694107 -24.598366579534428, -83.50768599825989 -24.77247624941051, -82.86872637902438 -25.00761929576715 M-84.45391043562223 -24.42425690965835 C-83.89557789175468 -24.629728446971065, -83.33724534788715 -24.83519998428378, -82.86872637902438 -25.00761929576715 M-82.86872637902438 -25.00761929576715 C-82.4759772887898 -25.124185164166725, -82.08322819855523 -25.240751032566305, -81.2494230966748 -25.488220010072123 M-82.86872637902438 -25.00761929576715 C-82.42071321242737 -25.14058725194404, -81.97270004583036 -25.273555208120932, -81.2494230966748 -25.488220010072123 M-81.2494230966748 -25.488220010072123 C-80.63165502023935 -25.629221542205073, -80.01388694380388 -25.77022307433802, -79.6026546531001 -25.864084161149673 M-81.2494230966748 -25.488220010072123 C-80.82406982301592 -25.58530411909525, -80.39871654935705 -25.682388228118377, -79.6026546531001 -25.864084161149673 M-79.6026546531001 -25.864084161149673 C-79.17130431645565 -25.93382153840653, -78.73995397981119 -26.003558915663383, -77.93518797306572 -26.133667242580398 M-79.6026546531001 -25.864084161149673 C-79.25558939809694 -25.920194980047334, -78.90852414309379 -25.976305798944992, -77.93518797306572 -26.133667242580398 M-77.93518797306572 -26.133667242580398 C-77.40624935646991 -26.18469331478164, -76.8773107398741 -26.23571938698288, -76.25387503483034 -26.29586147965732 M-77.93518797306572 -26.133667242580398 C-77.42524858041241 -26.182860482497816, -76.91530918775912 -26.232053722415234, -76.25387503483034 -26.29586147965732 M-76.25387503483034 -26.29586147965732 C-75.61188806377666 -26.316448752267178, -74.96990109272296 -26.337036024877037, -74.56562471389772 -26.350000381469727 M-76.25387503483034 -26.29586147965732 C-75.87826286525 -26.307906630851026, -75.50265069566966 -26.31995178204473, -74.56562471389772 -26.350000381469727 M-74.56562471389772 -26.350000381469727 C-74.56562471389772 -26.350000381469727, -74.5656247138977 -26.350000381469727, -74.5656247138977 -26.350000381469727 M-74.56562471389772 -26.350000381469727 C-74.56562471389772 -26.350000381469727, -74.5656247138977 -26.350000381469727, -74.5656247138977 -26.350000381469727" stroke="#455066" stroke-width="1.3" fill="none" stroke-dasharray="0 0" style=""/></g><g class="label" style="" transform="translate(0, -18.850000381469727)"><rect/><g><rect class="background" style="stroke: none"/><text y="-10.1" style=""><tspan class="text-outer-tspan row" x="0" y="-0.1em" dy="1.1em"><tspan font-style="normal" class="text-inner-tspan" font-weight="normal">Award</tspan><tspan font-style="normal" class="text-inner-tspan" font-weight="normal"> evidence-based</tspan></tspan><tspan class="text-outer-tspan row" x="0" y="1em" dy="1.1em"><tspan font-style="normal" class="text-inner-tspan" font-weight="normal">badge</tspan></tspan></text></g></g></g></g></g></g><defs><filter id="project42-learning-evidence-loop-drop-shadow" height="130%" width="130%"><feDropShadow dx="4" dy="4" stdDeviation="0" flood-opacity="0.06" flood-color="#000000"/></filter></defs><defs><filter id="project42-learning-evidence-loop-drop-shadow-small" height="150%" width="150%"><feDropShadow dx="2" dy="2" stdDeviation="0" flood-opacity="0.06" flood-color="#000000"/></filter></defs><linearGradient id="project42-learning-evidence-loop-gradient" gradientUnits="objectBoundingBox" x1="0%" y1="0%" x2="100%" y2="0%"><stop offset="0%" stop-color="#455066" stop-opacity="1"/><stop offset="100%" stop-color="#526f1b" stop-opacity="1"/></linearGradient></svg>